<svg xmlns="http://www.w3.org/2000/svg" xmlns:xlink="http://www.w3.org/1999/xlink" width="150" zoomAndPan="magnify" viewBox="0 0 112.5 37.5" height="50" preserveAspectRatio="xMidYMid meet" version="1.0"><defs><g/><clipPath id="f63d28ab85"><path d="M 33.164062 15.4375 L 37.894531 15.4375 L 37.894531 24.703125 L 33.164062 24.703125 Z M 33.164062 15.4375 " clip-rule="nonzero"/></clipPath><clipPath id="2aa2ea9867"><path d="M 32.054688 14.511719 L 44.964844 14.511719 L 44.964844 15.15625 L 32.054688 15.15625 Z M 32.054688 14.511719 " clip-rule="nonzero"/></clipPath><clipPath id="228149535a"><path d="M 32.378906 14.511719 L 44.640625 14.511719 C 44.820312 14.511719 44.964844 14.65625 44.964844 14.832031 C 44.964844 15.011719 44.820312 15.15625 44.640625 15.15625 L 32.378906 15.15625 C 32.199219 15.15625 32.054688 15.011719 32.054688 14.832031 C 32.054688 14.65625 32.199219 14.511719 32.378906 14.511719 Z M 32.378906 14.511719 " clip-rule="nonzero"/></clipPath><clipPath id="c73022305c"><path d="M 30.300781 25.140625 L 33.816406 25.140625 L 33.816406 28.378906 L 30.300781 28.378906 Z M 30.300781 25.140625 " clip-rule="nonzero"/></clipPath><clipPath id="e25afa903e"><path d="M 31.398438 25.140625 L 32.714844 25.140625 L 33.8125 28.378906 L 30.300781 28.378906 Z M 31.398438 25.140625 " clip-rule="nonzero"/></clipPath><clipPath id="f831ab361b"><path d="M 33.164062 25.140625 L 37.90625 25.140625 L 37.90625 28.378906 L 33.164062 28.378906 Z M 33.164062 25.140625 " clip-rule="nonzero"/></clipPath><clipPath id="00a0a9baf4"><path d="M 36.816406 25.140625 L 33.164062 25.140625 L 34.246094 28.378906 L 37.894531 28.378906 Z M 36.816406 25.140625 " clip-rule="nonzero"/></clipPath><clipPath id="6628528b93"><path d="M 36.402344 25.140625 L 37.894531 25.140625 L 37.894531 28.378906 L 36.402344 28.378906 Z M 36.402344 25.140625 " clip-rule="nonzero"/></clipPath><clipPath id="0bd6d506c6"><path d="M 30.890625 28.820312 L 33.433594 28.820312 L 33.433594 31.359375 L 30.890625 31.359375 Z M 30.890625 28.820312 " clip-rule="nonzero"/></clipPath><clipPath id="cd2910cbea"><path d="M 32.160156 28.820312 C 31.460938 28.820312 30.890625 29.386719 30.890625 30.089844 C 30.890625 30.789062 31.460938 31.359375 32.160156 31.359375 C 32.863281 31.359375 33.433594 30.789062 33.433594 30.089844 C 33.433594 29.386719 32.863281 28.820312 32.160156 28.820312 Z M 32.160156 28.820312 " clip-rule="nonzero"/></clipPath><clipPath id="be9c6f686b"><path d="M 23.664062 28.878906 L 25.925781 28.878906 L 25.925781 31.367188 L 23.664062 31.367188 Z M 23.664062 28.878906 " clip-rule="nonzero"/></clipPath><clipPath id="ebbc66547e"><path d="M 23.664062 28.878906 L 23.664062 31.359375 L 25.925781 30.121094 Z M 23.664062 28.878906 " clip-rule="nonzero"/></clipPath><clipPath id="b44082987d"><path d="M 23.664062 28.960938 L 30.898438 28.960938 L 30.898438 31.359375 L 23.664062 31.359375 Z M 23.664062 28.960938 " clip-rule="nonzero"/></clipPath><clipPath id="754c1ecb90"><path d="M 30.890625 28.960938 L 23.664062 28.960938 L 24.261719 30.160156 L 23.664062 31.359375 L 30.890625 31.359375 L 30.292969 30.160156 Z M 30.890625 28.960938 " clip-rule="nonzero"/></clipPath><clipPath id="f983071d6a"><path d="M 26.769531 25.140625 L 27.785156 25.140625 L 27.785156 30.273438 L 26.769531 30.273438 Z M 26.769531 25.140625 " clip-rule="nonzero"/></clipPath><clipPath id="93845f79ee"><path d="M 33 9 L 44 9 L 44 12 L 33 12 Z M 33 9 " clip-rule="nonzero"/></clipPath><clipPath id="e780187cf7"><path d="M 33.1875 10.871094 L 43.121094 9.261719 L 43.234375 9.949219 L 33.296875 11.558594 Z M 33.1875 10.871094 " clip-rule="nonzero"/></clipPath><clipPath id="da8288ef9f"><path d="M 33.53125 10.816406 L 42.777344 9.316406 C 42.964844 9.285156 43.144531 9.414062 43.175781 9.605469 C 43.207031 9.792969 43.078125 9.972656 42.886719 10.003906 L 33.640625 11.503906 C 33.453125 11.535156 33.273438 11.40625 33.242188 11.214844 C 33.210938 11.027344 33.339844 10.847656 33.53125 10.816406 Z M 33.53125 10.816406 " clip-rule="nonzero"/></clipPath><clipPath id="a57d62e0d9"><path d="M 42 9 L 44 9 L 44 11 L 42 11 Z M 42 9 " clip-rule="nonzero"/></clipPath><clipPath id="017aa3a664"><path d="M 43.15625 9.371094 L 43.515625 10.476562 L 43.15625 10.59375 L 42.796875 9.488281 Z M 43.15625 9.371094 " clip-rule="nonzero"/></clipPath><clipPath id="927b23e97f"><path d="M 43.214844 9.550781 L 43.457031 10.296875 C 43.472656 10.347656 43.46875 10.398438 43.445312 10.441406 C 43.421875 10.488281 43.382812 10.519531 43.335938 10.535156 C 43.289062 10.550781 43.238281 10.546875 43.191406 10.523438 C 43.148438 10.503906 43.113281 10.464844 43.097656 10.414062 L 42.855469 9.667969 C 42.839844 9.621094 42.84375 9.570312 42.867188 9.523438 C 42.886719 9.480469 42.925781 9.445312 42.976562 9.429688 C 43.023438 9.414062 43.074219 9.417969 43.117188 9.441406 C 43.164062 9.464844 43.199219 9.503906 43.214844 9.550781 Z M 43.214844 9.550781 " clip-rule="nonzero"/></clipPath><clipPath id="c97d29db66"><path d="M 32.234375 10.976562 L 35.253906 10.976562 L 35.253906 14.066406 L 32.234375 14.066406 Z M 32.234375 10.976562 " clip-rule="nonzero"/></clipPath><clipPath id="f754786b0b"><path d="M 40.476562 9.855469 L 44.523438 9.855469 L 44.523438 14.070312 L 40.476562 14.070312 Z M 40.476562 9.855469 " clip-rule="nonzero"/></clipPath><clipPath id="cc8295c61c"><path d="M 33.1875 11.558594 L 43.257812 11.558594 L 43.257812 14.070312 L 33.1875 14.070312 Z M 33.1875 11.558594 " clip-rule="nonzero"/></clipPath><clipPath id="965425377f"><path d="M 34.441406 11.558594 L 41.992188 11.558594 C 42.328125 11.558594 42.644531 11.691406 42.882812 11.925781 C 43.117188 12.164062 43.25 12.480469 43.25 12.816406 C 43.25 13.148438 43.117188 13.46875 42.882812 13.703125 C 42.644531 13.941406 42.328125 14.070312 41.992188 14.070312 L 34.441406 14.070312 C 34.109375 14.070312 33.789062 13.941406 33.554688 13.703125 C 33.320312 13.46875 33.1875 13.148438 33.1875 12.816406 C 33.1875 12.480469 33.320312 12.164062 33.554688 11.925781 C 33.789062 11.691406 34.109375 11.558594 34.441406 11.558594 Z M 34.441406 11.558594 " clip-rule="nonzero"/></clipPath><clipPath id="6cd4234c9d"><path d="M 34 10 L 42 10 L 42 13 L 34 13 Z M 34 10 " clip-rule="nonzero"/></clipPath><clipPath id="49dd415736"><path d="M 34.792969 10.882812 L 41.4375 10.027344 L 41.679688 11.914062 L 35.035156 12.765625 Z M 34.792969 10.882812 " clip-rule="nonzero"/></clipPath><clipPath id="0e1eb57aec"><path d="M 35.734375 10.761719 L 40.492188 10.148438 C 40.742188 10.117188 40.996094 10.1875 41.195312 10.339844 C 41.394531 10.492188 41.523438 10.722656 41.554688 10.96875 C 41.585938 11.21875 41.519531 11.472656 41.363281 11.671875 C 41.210938 11.871094 40.984375 12 40.734375 12.035156 L 35.976562 12.644531 C 35.726562 12.675781 35.472656 12.609375 35.273438 12.453125 C 35.074219 12.300781 34.945312 12.074219 34.914062 11.824219 C 34.882812 11.574219 34.949219 11.320312 35.105469 11.121094 C 35.257812 10.921875 35.484375 10.792969 35.734375 10.761719 Z M 35.734375 10.761719 " clip-rule="nonzero"/></clipPath><clipPath id="331d55c0ca"><path d="M 32 8 L 46 8 L 46 11 L 32 11 Z M 32 8 " clip-rule="nonzero"/></clipPath><clipPath id="65397792bb"><path d="M 32.269531 10.03125 L 44.992188 7.96875 L 45.070312 8.457031 L 32.347656 10.523438 Z M 32.269531 10.03125 " clip-rule="nonzero"/></clipPath><clipPath id="4adf72cddb"><path d="M 32.511719 9.992188 L 44.746094 8.011719 C 44.808594 8 44.875 8.015625 44.929688 8.054688 C 44.984375 8.089844 45.019531 8.148438 45.03125 8.214844 C 45.039062 8.277344 45.023438 8.34375 44.984375 8.398438 C 44.949219 8.453125 44.890625 8.488281 44.824219 8.5 L 32.589844 10.480469 C 32.527344 10.492188 32.460938 10.476562 32.40625 10.4375 C 32.355469 10.398438 32.316406 10.34375 32.308594 10.277344 C 32.296875 10.210938 32.3125 10.144531 32.351562 10.09375 C 32.390625 10.039062 32.449219 10.003906 32.511719 9.992188 Z M 32.511719 9.992188 " clip-rule="nonzero"/></clipPath><clipPath id="f63e6e22d7"><path d="M 32 9 L 36 9 L 36 11 L 32 11 Z M 32 9 " clip-rule="nonzero"/></clipPath><clipPath id="f7356aec2b"><path d="M 32.117188 9.386719 L 35.34375 8.964844 L 35.488281 10.070312 L 32.257812 10.492188 Z M 32.117188 9.386719 " clip-rule="nonzero"/></clipPath><clipPath id="985cfa12c3"><path d="M 32.667969 9.3125 L 34.789062 9.039062 C 34.9375 9.019531 35.085938 9.058594 35.203125 9.148438 C 35.316406 9.238281 35.394531 9.371094 35.414062 9.519531 C 35.433594 9.664062 35.394531 9.8125 35.304688 9.929688 C 35.210938 10.046875 35.078125 10.125 34.933594 10.140625 L 32.8125 10.417969 C 32.664062 10.4375 32.515625 10.398438 32.398438 10.308594 C 32.28125 10.21875 32.207031 10.085938 32.1875 9.9375 C 32.167969 9.792969 32.207031 9.644531 32.296875 9.527344 C 32.386719 9.410156 32.523438 9.332031 32.667969 9.3125 Z M 32.667969 9.3125 " clip-rule="nonzero"/></clipPath><clipPath id="2abcb181b6"><path d="M 32 8 L 45 8 L 45 10 L 32 10 Z M 32 8 " clip-rule="nonzero"/></clipPath><clipPath id="7a37f1ad61"><path d="M 32.082031 9.207031 L 44.671875 8.136719 L 44.707031 8.53125 L 32.117188 9.597656 Z M 32.082031 9.207031 " clip-rule="nonzero"/></clipPath><clipPath id="cb19374e58"><path d="M 32.28125 9.1875 L 44.476562 8.152344 C 44.582031 8.144531 44.679688 8.226562 44.6875 8.332031 C 44.699219 8.441406 44.617188 8.539062 44.507812 8.546875 L 32.3125 9.582031 C 32.203125 9.589844 32.109375 9.511719 32.097656 9.402344 C 32.089844 9.292969 32.171875 9.199219 32.28125 9.1875 Z M 32.28125 9.1875 " clip-rule="nonzero"/></clipPath><clipPath id="9a2bd7011e"><path d="M 32 9 L 33 9 L 33 11 L 32 11 Z M 32 9 " clip-rule="nonzero"/></clipPath><clipPath id="5c139a47e8"><path d="M 32.054688 9.316406 L 32.449219 9.246094 L 32.664062 10.472656 L 32.269531 10.542969 Z M 32.054688 9.316406 " clip-rule="nonzero"/></clipPath><clipPath id="9f1617cdb2"><path d="M 32.253906 9.28125 C 32.304688 9.273438 32.359375 9.285156 32.402344 9.316406 C 32.445312 9.34375 32.476562 9.390625 32.484375 9.445312 L 32.628906 10.277344 C 32.636719 10.328125 32.625 10.382812 32.597656 10.425781 C 32.566406 10.46875 32.519531 10.496094 32.46875 10.507812 C 32.414062 10.515625 32.359375 10.503906 32.316406 10.472656 C 32.273438 10.441406 32.246094 10.398438 32.234375 10.34375 L 32.089844 9.511719 C 32.082031 9.460938 32.09375 9.40625 32.125 9.363281 C 32.152344 9.320312 32.199219 9.289062 32.253906 9.28125 Z M 32.253906 9.28125 " clip-rule="nonzero"/></clipPath><clipPath id="c4d8955520"><path d="M 34 8 L 39 8 L 39 10 L 34 10 Z M 34 8 " clip-rule="nonzero"/></clipPath><clipPath id="62fab4d0be"><path d="M 34.726562 9.265625 L 38.394531 8.789062 L 38.449219 9.203125 L 34.78125 9.679688 Z M 34.726562 9.265625 " clip-rule="nonzero"/></clipPath><clipPath id="f5dff38f45"><path d="M 34.933594 9.238281 L 38.183594 8.816406 C 38.300781 8.800781 38.40625 8.878906 38.417969 8.996094 C 38.433594 9.109375 38.355469 9.214844 38.238281 9.230469 L 34.988281 9.652344 C 34.875 9.667969 34.769531 9.585938 34.753906 9.472656 C 34.738281 9.359375 34.820312 9.253906 34.933594 9.238281 Z M 34.933594 9.238281 " clip-rule="nonzero"/></clipPath><clipPath id="2d277dfecb"><path d="M 26.769531 24.425781 L 27.785156 24.425781 L 27.785156 25.140625 L 26.769531 25.140625 Z M 26.769531 24.425781 " clip-rule="nonzero"/></clipPath><clipPath id="df2827c82e"><path d="M 26.769531 19.367188 L 27.785156 19.367188 L 27.785156 24.496094 L 26.769531 24.496094 Z M 26.769531 19.367188 " clip-rule="nonzero"/></clipPath><clipPath id="1f1e1a853c"><path d="M 35 3 L 42 3 L 42 7 L 35 7 Z M 35 3 " clip-rule="nonzero"/></clipPath><clipPath id="896026ef87"><path d="M 35.144531 5.828125 L 41.117188 3.855469 L 41.253906 4.269531 L 35.28125 6.242188 Z M 35.144531 5.828125 " clip-rule="nonzero"/></clipPath><clipPath id="01e383d6d8"><path d="M 35.351562 5.757812 L 40.910156 3.921875 C 41.023438 3.886719 41.148438 3.949219 41.1875 4.0625 C 41.222656 4.175781 41.160156 4.300781 41.046875 4.335938 L 35.488281 6.171875 C 35.371094 6.210938 35.25 6.148438 35.210938 6.035156 C 35.171875 5.917969 35.234375 5.796875 35.351562 5.757812 Z M 35.351562 5.757812 " clip-rule="nonzero"/></clipPath><clipPath id="bba396439c"><path d="M 40 3 L 42 3 L 42 5 L 40 5 Z M 40 3 " clip-rule="nonzero"/></clipPath><clipPath id="747c05d360"><path d="M 41.148438 3.921875 L 41.480469 4.566406 L 41.273438 4.675781 L 40.941406 4.027344 Z M 41.148438 3.921875 " clip-rule="nonzero"/></clipPath><clipPath id="81a83f0c69"><path d="M 41.203125 4.027344 L 41.425781 4.460938 C 41.441406 4.492188 41.445312 4.523438 41.433594 4.550781 C 41.425781 4.582031 41.40625 4.605469 41.375 4.621094 C 41.347656 4.636719 41.316406 4.636719 41.285156 4.628906 C 41.257812 4.617188 41.230469 4.597656 41.21875 4.570312 L 40.992188 4.132812 C 40.980469 4.105469 40.976562 4.074219 40.988281 4.042969 C 40.996094 4.015625 41.015625 3.988281 41.042969 3.976562 C 41.074219 3.960938 41.105469 3.957031 41.136719 3.96875 C 41.164062 3.976562 41.1875 4 41.203125 4.027344 Z M 41.203125 4.027344 " clip-rule="nonzero"/></clipPath><clipPath id="7cbcd8ead5"><path d="M 34 5 L 37 5 L 37 8 L 34 8 Z M 34 5 " clip-rule="nonzero"/></clipPath><clipPath id="7ea6b2489a"><path d="M 34.871094 7.894531 L 34.566406 5.984375 L 36.429688 5.6875 L 36.734375 7.597656 Z M 34.871094 7.894531 " clip-rule="nonzero"/></clipPath><clipPath id="39c32842fb"><path d="M 34.566406 5.980469 L 34.871094 7.894531 L 36.734375 7.59375 L 36.429688 5.683594 Z M 34.566406 5.980469 " clip-rule="nonzero"/></clipPath><clipPath id="8c7ef64c8d"><path d="M 39 4 L 43 4 L 43 8 L 39 8 Z M 39 4 " clip-rule="nonzero"/></clipPath><clipPath id="ed352bfd8a"><path d="M 39.941406 7.089844 L 39.527344 4.480469 L 42.042969 4.078125 L 42.457031 6.6875 Z M 39.941406 7.089844 " clip-rule="nonzero"/></clipPath><clipPath id="3eeadf31f4"><path d="M 42.058594 4.082031 L 42.476562 6.691406 L 39.960938 7.09375 L 39.542969 4.484375 Z M 42.058594 4.082031 " clip-rule="nonzero"/></clipPath><clipPath id="c5b1ad4c4d"><path d="M 35 5 L 42 5 L 42 8 L 35 8 Z M 35 5 " clip-rule="nonzero"/></clipPath><clipPath id="00188bb675"><path d="M 35.210938 6.25 L 41.425781 5.261719 L 41.675781 6.8125 L 35.457031 7.800781 Z M 35.210938 6.25 " clip-rule="nonzero"/></clipPath><clipPath id="793ae8f58b"><path d="M 35.988281 6.128906 L 40.648438 5.386719 C 40.855469 5.351562 41.0625 5.402344 41.234375 5.523438 C 41.402344 5.648438 41.515625 5.832031 41.546875 6.035156 C 41.582031 6.242188 41.53125 6.453125 41.40625 6.621094 C 41.285156 6.789062 41.101562 6.902344 40.894531 6.9375 L 36.234375 7.679688 C 36.027344 7.710938 35.816406 7.660156 35.648438 7.539062 C 35.480469 7.417969 35.367188 7.234375 35.335938 7.027344 C 35.300781 6.820312 35.351562 6.609375 35.472656 6.441406 C 35.597656 6.273438 35.78125 6.160156 35.988281 6.128906 Z M 35.988281 6.128906 " clip-rule="nonzero"/></clipPath><clipPath id="c2ac430b6b"><path d="M 36 4 L 41 4 L 41 7 L 36 7 Z M 36 4 " clip-rule="nonzero"/></clipPath><clipPath id="e51404dbc1"><path d="M 36.136719 5.675781 L 40.15625 4.496094 L 40.488281 5.632812 L 36.46875 6.8125 Z M 36.136719 5.675781 " clip-rule="nonzero"/></clipPath><clipPath id="144ea7897e"><path d="M 36.707031 5.507812 L 39.582031 4.664062 C 39.734375 4.617188 39.894531 4.636719 40.035156 4.710938 C 40.171875 4.785156 40.273438 4.914062 40.320312 5.066406 C 40.363281 5.214844 40.347656 5.378906 40.269531 5.515625 C 40.195312 5.65625 40.070312 5.757812 39.917969 5.800781 L 37.039062 6.648438 C 36.890625 6.691406 36.726562 6.671875 36.589844 6.597656 C 36.449219 6.523438 36.347656 6.394531 36.304688 6.246094 C 36.257812 6.09375 36.277344 5.929688 36.351562 5.792969 C 36.425781 5.652344 36.554688 5.550781 36.707031 5.507812 Z M 36.707031 5.507812 " clip-rule="nonzero"/></clipPath><clipPath id="6d1648388c"><path d="M 34 6 L 43 6 L 43 9 L 34 9 Z M 34 6 " clip-rule="nonzero"/></clipPath><clipPath id="4ad6a9bc38"><path d="M 42.71875 7.289062 L 34.179688 8.675781 L 34.128906 8.355469 L 42.667969 6.96875 Z M 42.71875 7.289062 " clip-rule="nonzero"/></clipPath><clipPath id="3fa81df60a"><path d="M 42.558594 7.316406 L 34.34375 8.648438 C 34.300781 8.65625 34.257812 8.644531 34.222656 8.621094 C 34.1875 8.59375 34.164062 8.558594 34.15625 8.515625 C 34.148438 8.472656 34.160156 8.429688 34.183594 8.394531 C 34.210938 8.359375 34.25 8.335938 34.292969 8.328125 L 42.507812 6.996094 C 42.550781 6.988281 42.59375 7 42.628906 7.023438 C 42.664062 7.050781 42.6875 7.085938 42.695312 7.128906 C 42.703125 7.171875 42.691406 7.214844 42.664062 7.25 C 42.640625 7.285156 42.601562 7.308594 42.558594 7.316406 Z M 42.558594 7.316406 " clip-rule="nonzero"/></clipPath><clipPath id="688960ea32"><path d="M 40 7 L 43 7 L 43 8 L 40 8 Z M 40 7 " clip-rule="nonzero"/></clipPath><clipPath id="a7393eb85f"><path d="M 42.820312 7.726562 L 40.65625 8.011719 L 40.558594 7.28125 L 42.726562 7 Z M 42.820312 7.726562 " clip-rule="nonzero"/></clipPath><clipPath id="286041522a"><path d="M 42.457031 7.773438 L 41.019531 7.960938 C 40.921875 7.976562 40.824219 7.949219 40.746094 7.890625 C 40.671875 7.832031 40.621094 7.742188 40.609375 7.644531 C 40.59375 7.550781 40.621094 7.453125 40.679688 7.375 C 40.742188 7.296875 40.828125 7.25 40.925781 7.234375 L 42.363281 7.046875 C 42.460938 7.035156 42.558594 7.0625 42.636719 7.121094 C 42.710938 7.179688 42.761719 7.269531 42.773438 7.363281 C 42.789062 7.460938 42.761719 7.558594 42.703125 7.636719 C 42.644531 7.710938 42.554688 7.761719 42.457031 7.773438 Z M 42.457031 7.773438 " clip-rule="nonzero"/></clipPath><clipPath id="a7db3b5c05"><path d="M 34 7 L 43 7 L 43 9 L 34 9 Z M 34 7 " clip-rule="nonzero"/></clipPath><clipPath id="bcade91f2f"><path d="M 42.84375 7.84375 L 34.394531 8.558594 L 34.375 8.300781 L 42.824219 7.582031 Z M 42.84375 7.84375 " clip-rule="nonzero"/></clipPath><clipPath id="aca23e097e"><path d="M 42.714844 7.855469 L 34.527344 8.546875 C 34.453125 8.554688 34.390625 8.5 34.386719 8.429688 C 34.378906 8.359375 34.433594 8.296875 34.503906 8.289062 L 42.691406 7.59375 C 42.765625 7.589844 42.828125 7.640625 42.832031 7.714844 C 42.839844 7.785156 42.785156 7.847656 42.714844 7.855469 Z M 42.714844 7.855469 " clip-rule="nonzero"/></clipPath><clipPath id="e66b356f4d"><path d="M 34 7 L 44 7 L 44 9 L 34 9 Z M 34 7 " clip-rule="nonzero"/></clipPath><clipPath id="b64e3ebe4e"><path d="M 43.261719 7.886719 L 34.578125 8.625 L 34.554688 8.367188 L 43.238281 7.632812 Z M 43.261719 7.886719 " clip-rule="nonzero"/></clipPath><clipPath id="86f6d61060"><path d="M 43.132812 7.898438 L 34.707031 8.613281 C 34.671875 8.617188 34.636719 8.605469 34.609375 8.582031 C 34.585938 8.5625 34.570312 8.53125 34.566406 8.496094 C 34.5625 8.460938 34.574219 8.429688 34.597656 8.402344 C 34.617188 8.375 34.648438 8.359375 34.683594 8.355469 L 43.109375 7.640625 C 43.144531 7.640625 43.179688 7.648438 43.203125 7.671875 C 43.230469 7.695312 43.246094 7.726562 43.25 7.757812 C 43.253906 7.792969 43.242188 7.828125 43.21875 7.851562 C 43.199219 7.878906 43.164062 7.894531 43.132812 7.898438 Z M 43.132812 7.898438 " clip-rule="nonzero"/></clipPath><clipPath id="5e9f85ffbd"><path d="M 42 6 L 43 6 L 43 8 L 42 8 Z M 42 6 " clip-rule="nonzero"/></clipPath><clipPath id="b2e99aaa0d"><path d="M 42.863281 7.777344 L 42.597656 7.824219 L 42.457031 7.015625 L 42.722656 6.96875 Z M 42.863281 7.777344 " clip-rule="nonzero"/></clipPath><clipPath id="a8fc1d8e06"><path d="M 42.730469 7.800781 C 42.65625 7.8125 42.585938 7.761719 42.574219 7.6875 L 42.480469 7.148438 C 42.464844 7.074219 42.515625 7.003906 42.589844 6.992188 C 42.664062 6.980469 42.734375 7.027344 42.746094 7.101562 L 42.839844 7.644531 C 42.851562 7.714844 42.804688 7.785156 42.730469 7.800781 Z M 42.730469 7.800781 " clip-rule="nonzero"/></clipPath><clipPath id="0439505ea9"><path d="M 38 7 L 42 7 L 42 9 L 38 9 Z M 38 7 " clip-rule="nonzero"/></clipPath><clipPath id="1da36e703c"><path d="M 41.070312 7.804688 L 38.609375 8.128906 L 38.574219 7.855469 L 41.035156 7.535156 Z M 41.070312 7.804688 " clip-rule="nonzero"/></clipPath><clipPath id="bd75b8daba"><path d="M 40.933594 7.824219 L 38.746094 8.109375 C 38.671875 8.117188 38.601562 8.066406 38.589844 7.992188 C 38.582031 7.914062 38.636719 7.847656 38.710938 7.835938 L 40.898438 7.550781 C 40.972656 7.542969 41.042969 7.59375 41.050781 7.671875 C 41.0625 7.746094 41.007812 7.816406 40.933594 7.824219 Z M 40.933594 7.824219 " clip-rule="nonzero"/></clipPath><clipPath id="c6846c7734"><path d="M 40 7 L 43 7 L 43 8 L 40 8 Z M 40 7 " clip-rule="nonzero"/></clipPath><clipPath id="d10644907b"><path d="M 42.863281 7.726562 L 40.695312 8.011719 L 40.601562 7.28125 L 42.769531 7 Z M 42.863281 7.726562 " clip-rule="nonzero"/></clipPath><clipPath id="a51f9be7b0"><path d="M 42.5 7.773438 L 41.058594 7.960938 C 40.960938 7.976562 40.863281 7.949219 40.789062 7.890625 C 40.710938 7.832031 40.660156 7.742188 40.648438 7.644531 C 40.636719 7.550781 40.660156 7.453125 40.722656 7.375 C 40.78125 7.296875 40.867188 7.25 40.964844 7.234375 L 42.402344 7.046875 C 42.5 7.035156 42.597656 7.0625 42.675781 7.121094 C 42.753906 7.179688 42.800781 7.269531 42.816406 7.363281 C 42.828125 7.460938 42.800781 7.558594 42.742188 7.636719 C 42.683594 7.710938 42.59375 7.761719 42.5 7.773438 Z M 42.5 7.773438 " clip-rule="nonzero"/></clipPath><clipPath id="0b6e60b792"><path d="M 42 7 L 44 7 L 44 8 L 42 8 Z M 42 7 " clip-rule="nonzero"/></clipPath><clipPath id="ab01ad6cfb"><path d="M 42.878906 7.96875 L 42.410156 7.261719 L 42.765625 7.027344 L 43.234375 7.734375 Z M 42.878906 7.96875 " clip-rule="nonzero"/></clipPath><clipPath id="3dbed6cf3f"><path d="M 29 0 L 35 0 L 35 8 L 29 8 Z M 29 0 " clip-rule="nonzero"/></clipPath><clipPath id="64d690f509"><path d="M 28.984375 1.25 L 30.839844 0.03125 L 35.714844 7.457031 L 33.859375 8.675781 Z M 28.984375 1.25 " clip-rule="nonzero"/></clipPath><clipPath id="ddf7887f0b"><path d="M 28.984375 1.25 L 30.839844 0.03125 L 35.714844 7.457031 L 33.859375 8.675781 Z M 28.984375 1.25 " clip-rule="nonzero"/></clipPath></defs><g clip-path="url(#f63d28ab85)"><path fill="#bec5ba" d="M 33.164062 15.4375 L 37.894531 15.4375 L 37.894531 24.695312 L 33.164062 24.695312 Z M 33.164062 15.4375 " fill-opacity="1" fill-rule="nonzero"/></g><g clip-path="url(#2aa2ea9867)"><g clip-path="url(#228149535a)"><path fill="#6db159" d="M 32.054688 14.511719 L 44.960938 14.511719 L 44.960938 15.15625 L 32.054688 15.15625 Z M 32.054688 14.511719 " fill-opacity="1" fill-rule="nonzero"/></g></g><g clip-path="url(#c73022305c)"><g clip-path="url(#e25afa903e)"><path fill="#6db159" d="M 30.300781 25.140625 L 33.816406 25.140625 L 33.816406 28.378906 L 30.300781 28.378906 Z M 30.300781 25.140625 " fill-opacity="1" fill-rule="nonzero"/></g></g><g fill="#fefefe" fill-opacity="1"><g transform="translate(37.847009, 30.889668)"><g><path d="M 10.03125 -15.421875 L 10.03125 -12.328125 L 4.640625 -12.328125 L 4.640625 -9.265625 L 9.625 -9.265625 L 9.625 -6.1875 L 4.640625 -6.1875 L 4.640625 0 L 1.125 0 L 1.125 -15.421875 Z M 10.03125 -15.421875 "/></g></g></g><g fill="#fefefe" fill-opacity="1"><g transform="translate(48.445553, 30.889668)"><g><path d="M 1.125 0 L 1.125 -9.59375 L 4.421875 -9.59375 L 4.421875 -8.203125 L 4.46875 -8.203125 C 4.488281 -8.253906 4.523438 -8.316406 4.578125 -8.390625 C 4.640625 -8.460938 4.765625 -8.59375 4.953125 -8.78125 C 5.140625 -8.96875 5.335938 -9.132812 5.546875 -9.28125 C 5.765625 -9.4375 6.039062 -9.570312 6.375 -9.6875 C 6.707031 -9.800781 7.050781 -9.859375 7.40625 -9.859375 C 7.757812 -9.859375 8.109375 -9.804688 8.453125 -9.703125 C 8.804688 -9.609375 9.066406 -9.515625 9.234375 -9.421875 L 9.5 -9.265625 L 8.109375 -6.46875 C 7.703125 -6.8125 7.128906 -6.984375 6.390625 -6.984375 C 5.992188 -6.984375 5.648438 -6.894531 5.359375 -6.71875 C 5.078125 -6.550781 4.875 -6.34375 4.75 -6.09375 C 4.632812 -5.84375 4.550781 -5.628906 4.5 -5.453125 C 4.445312 -5.273438 4.421875 -5.140625 4.421875 -5.046875 L 4.421875 0 Z M 1.125 0 "/></g></g></g><g fill="#fefefe" fill-opacity="1"><g transform="translate(57.754329, 30.889668)"><g><path d="M 1.4375 -14.9375 C 1.820312 -15.320312 2.28125 -15.515625 2.8125 -15.515625 C 3.351562 -15.515625 3.816406 -15.320312 4.203125 -14.9375 C 4.585938 -14.550781 4.78125 -14.085938 4.78125 -13.546875 C 4.78125 -13.015625 4.585938 -12.554688 4.203125 -12.171875 C 3.816406 -11.785156 3.351562 -11.59375 2.8125 -11.59375 C 2.28125 -11.59375 1.820312 -11.785156 1.4375 -12.171875 C 1.050781 -12.554688 0.859375 -13.015625 0.859375 -13.546875 C 0.859375 -14.085938 1.050781 -14.550781 1.4375 -14.9375 Z M 1.125 -9.59375 L 1.125 0 L 4.421875 0 L 4.421875 -9.59375 Z M 1.125 -9.59375 "/></g></g></g><g fill="#fefefe" fill-opacity="1"><g transform="translate(63.39941, 30.889668)"><g><path d="M 1.6875 -9.59375 L 1.6875 -13.15625 L 4.984375 -13.15625 L 4.984375 -9.59375 L 7 -9.59375 L 7 -7.0625 L 4.984375 -7.0625 L 4.984375 -4.015625 C 4.984375 -3.128906 5.234375 -2.6875 5.734375 -2.6875 C 5.859375 -2.6875 5.988281 -2.710938 6.125 -2.765625 C 6.257812 -2.816406 6.367188 -2.867188 6.453125 -2.921875 L 6.5625 -2.984375 L 7.375 -0.3125 C 6.664062 0.0820312 5.859375 0.28125 4.953125 0.28125 C 4.328125 0.28125 3.789062 0.171875 3.34375 -0.046875 C 2.894531 -0.265625 2.554688 -0.554688 2.328125 -0.921875 C 2.097656 -1.285156 1.929688 -1.671875 1.828125 -2.078125 C 1.734375 -2.484375 1.6875 -2.914062 1.6875 -3.375 L 1.6875 -7.0625 L 0.296875 -7.0625 L 0.296875 -9.59375 Z M 1.6875 -9.59375 "/></g></g></g><g fill="#fefefe" fill-opacity="1"><g transform="translate(70.969797, 30.889668)"><g><path d="M 10.390625 -9.59375 L 5.640625 -2.515625 L 10.015625 -2.515625 L 10.015625 0 L 0.09375 0 L 4.84375 -7.0625 L 0.875 -7.0625 L 0.875 -9.59375 Z M 10.390625 -9.59375 "/></g></g></g><g fill="#fefefe" fill-opacity="1"><g transform="translate(81.456189, 30.889668)"><g><path d="M 3.25 -4 C 3.851562 -4 4.363281 -3.789062 4.78125 -3.375 C 5.195312 -2.957031 5.40625 -2.445312 5.40625 -1.84375 C 5.40625 -1.257812 5.195312 -0.757812 4.78125 -0.34375 C 4.363281 0.0703125 3.851562 0.28125 3.25 0.28125 C 2.664062 0.28125 2.164062 0.0703125 1.75 -0.34375 C 1.332031 -0.757812 1.125 -1.257812 1.125 -1.84375 C 1.125 -2.445312 1.332031 -2.957031 1.75 -3.375 C 2.164062 -3.789062 2.664062 -4 3.25 -4 Z M 3.25 -4 "/></g></g></g><g fill="#fefefe" fill-opacity="1"><g transform="translate(87.980496, 30.889668)"><g/></g></g><g clip-path="url(#f831ab361b)"><g clip-path="url(#00a0a9baf4)"><path fill="#545653" d="M 33.164062 25.140625 L 37.894531 25.140625 L 37.894531 28.378906 L 33.164062 28.378906 Z M 33.164062 25.140625 " fill-opacity="1" fill-rule="nonzero"/></g></g><g clip-path="url(#6628528b93)"><path fill="#545653" d="M 36.402344 25.140625 L 37.894531 25.140625 L 37.894531 28.378906 L 36.402344 28.378906 Z M 36.402344 25.140625 " fill-opacity="1" fill-rule="nonzero"/></g><g clip-path="url(#0bd6d506c6)"><g clip-path="url(#cd2910cbea)"><path fill="#5a5e61" d="M 30.890625 28.820312 L 33.433594 28.820312 L 33.433594 31.359375 L 30.890625 31.359375 Z M 30.890625 28.820312 " fill-opacity="1" fill-rule="nonzero"/></g></g><g clip-path="url(#be9c6f686b)"><g clip-path="url(#ebbc66547e)"><path fill="#5a5e61" d="M 23.664062 28.878906 L 25.925781 28.878906 L 25.925781 31.355469 L 23.664062 31.355469 Z M 23.664062 28.878906 " fill-opacity="1" fill-rule="nonzero"/></g></g><g clip-path="url(#b44082987d)"><g clip-path="url(#754c1ecb90)"><path fill="#5a5e61" d="M 23.664062 28.960938 L 30.890625 28.960938 L 30.890625 31.359375 L 23.664062 31.359375 Z M 23.664062 28.960938 " fill-opacity="1" fill-rule="nonzero"/></g></g><g clip-path="url(#f983071d6a)"><path fill="#5a5e61" d="M 26.769531 25.140625 L 27.785156 25.140625 L 27.785156 30.273438 L 26.769531 30.273438 Z M 26.769531 25.140625 " fill-opacity="1" fill-rule="nonzero"/></g><g clip-path="url(#93845f79ee)"><g clip-path="url(#e780187cf7)"><g clip-path="url(#da8288ef9f)"><path fill="#6db159" d="M 33.1875 10.871094 L 43.121094 9.261719 L 43.230469 9.949219 L 33.296875 11.558594 Z M 33.1875 10.871094 " fill-opacity="1" fill-rule="nonzero"/></g></g></g><g clip-path="url(#a57d62e0d9)"><g clip-path="url(#017aa3a664)"><g clip-path="url(#927b23e97f)"><path fill="#6db159" d="M 43.15625 9.371094 L 43.515625 10.476562 L 43.15625 10.59375 L 42.796875 9.488281 Z M 43.15625 9.371094 " fill-opacity="1" fill-rule="nonzero"/></g></g></g><g clip-path="url(#c97d29db66)"><path fill="#6db159" d="M 35.253906 13.683594 L 35.253906 11.359375 C 35.253906 11.144531 35.078125 10.972656 34.863281 10.972656 L 33.429688 10.972656 C 33.257812 10.972656 33.109375 11.082031 33.058594 11.242188 L 32.316406 13.5625 C 32.234375 13.816406 32.421875 14.070312 32.683594 14.070312 L 34.863281 14.070312 C 35.078125 14.070312 35.253906 13.898438 35.253906 13.683594 Z M 35.253906 13.683594 " fill-opacity="1" fill-rule="nonzero"/></g><g clip-path="url(#f754786b0b)"><path fill="#6db159" d="M 40.449219 13.542969 L 40.449219 10.386719 C 40.449219 10.09375 40.6875 9.855469 40.976562 9.855469 L 42.929688 9.855469 C 43.160156 9.855469 43.363281 10.003906 43.433594 10.222656 L 44.441406 13.382812 C 44.550781 13.722656 44.296875 14.070312 43.941406 14.070312 L 40.976562 14.070312 C 40.6875 14.070312 40.449219 13.835938 40.449219 13.542969 Z M 40.449219 13.542969 " fill-opacity="1" fill-rule="nonzero"/></g><g clip-path="url(#cc8295c61c)"><g clip-path="url(#965425377f)"><path fill="#6db159" d="M 33.1875 11.558594 L 43.246094 11.558594 L 43.246094 14.070312 L 33.1875 14.070312 Z M 33.1875 11.558594 " fill-opacity="1" fill-rule="nonzero"/></g></g><g clip-path="url(#6cd4234c9d)"><g clip-path="url(#49dd415736)"><g clip-path="url(#0e1eb57aec)"><path fill="#6db159" d="M 34.792969 10.882812 L 41.429688 10.027344 L 41.671875 11.914062 L 35.035156 12.765625 Z M 34.792969 10.882812 " fill-opacity="1" fill-rule="nonzero"/></g></g></g><g clip-path="url(#331d55c0ca)"><g clip-path="url(#65397792bb)"><g clip-path="url(#4adf72cddb)"><path fill="#afc991" d="M 32.269531 10.03125 L 44.988281 7.96875 L 45.070312 8.457031 L 32.347656 10.523438 Z M 32.269531 10.03125 " fill-opacity="1" fill-rule="nonzero"/></g></g></g><g clip-path="url(#f63e6e22d7)"><g clip-path="url(#f7356aec2b)"><g clip-path="url(#985cfa12c3)"><path fill="#afc991" d="M 32.117188 9.386719 L 35.339844 8.964844 L 35.484375 10.070312 L 32.257812 10.492188 Z M 32.117188 9.386719 " fill-opacity="1" fill-rule="nonzero"/></g></g></g><g clip-path="url(#2abcb181b6)"><g clip-path="url(#7a37f1ad61)"><g clip-path="url(#cb19374e58)"><path fill="#afc991" d="M 32.082031 9.207031 L 44.671875 8.136719 L 44.703125 8.53125 L 32.117188 9.597656 Z M 32.082031 9.207031 " fill-opacity="1" fill-rule="nonzero"/></g></g></g><g clip-path="url(#9a2bd7011e)"><g clip-path="url(#5c139a47e8)"><g clip-path="url(#9f1617cdb2)"><path fill="#afc991" d="M 32.054688 9.316406 L 32.449219 9.246094 L 32.664062 10.472656 L 32.269531 10.542969 Z M 32.054688 9.316406 " fill-opacity="1" fill-rule="nonzero"/></g></g></g><g clip-path="url(#c4d8955520)"><g clip-path="url(#62fab4d0be)"><g clip-path="url(#f5dff38f45)"><path fill="#afc991" d="M 34.726562 9.265625 L 38.390625 8.789062 L 38.445312 9.203125 L 34.78125 9.679688 Z M 34.726562 9.265625 " fill-opacity="1" fill-rule="nonzero"/></g></g></g><g clip-path="url(#2d277dfecb)"><path fill="#010101" d="M 26.769531 24.425781 L 27.785156 24.425781 L 27.785156 25.140625 L 26.769531 25.140625 Z M 26.769531 24.425781 " fill-opacity="1" fill-rule="nonzero"/></g><g clip-path="url(#df2827c82e)"><path fill="#bec5ba" d="M 26.769531 19.367188 L 27.785156 19.367188 L 27.785156 24.5 L 26.769531 24.5 Z M 26.769531 19.367188 " fill-opacity="1" fill-rule="nonzero"/></g><g clip-path="url(#1f1e1a853c)"><g clip-path="url(#896026ef87)"><g clip-path="url(#01e383d6d8)"><path fill="#6db159" d="M 35.144531 5.828125 L 41.117188 3.855469 L 41.253906 4.269531 L 35.28125 6.242188 Z M 35.144531 5.828125 " fill-opacity="1" fill-rule="nonzero"/></g></g></g><g clip-path="url(#bba396439c)"><g clip-path="url(#747c05d360)"><g clip-path="url(#81a83f0c69)"><path fill="#6db159" d="M 41.148438 3.921875 L 41.480469 4.566406 L 41.273438 4.675781 L 40.941406 4.027344 Z M 41.148438 3.921875 " fill-opacity="1" fill-rule="nonzero"/></g></g></g><g clip-path="url(#7cbcd8ead5)"><g clip-path="url(#7ea6b2489a)"><g clip-path="url(#39c32842fb)"><path fill="#6db159" d="M 36.695312 7.359375 L 36.46875 5.925781 C 36.445312 5.792969 36.320312 5.703125 36.1875 5.722656 L 35.300781 5.863281 C 35.199219 5.882812 35.117188 5.964844 35.101562 6.066406 L 34.871094 7.574219 C 34.84375 7.738281 34.984375 7.878906 35.148438 7.851562 L 36.492188 7.636719 C 36.625 7.617188 36.714844 7.492188 36.695312 7.359375 Z M 36.695312 7.359375 " fill-opacity="1" fill-rule="nonzero"/></g></g></g><g clip-path="url(#8c7ef64c8d)"><g clip-path="url(#ed352bfd8a)"><g clip-path="url(#3eeadf31f4)"><path fill="#6db159" d="M 39.890625 6.761719 L 39.578125 4.8125 C 39.550781 4.632812 39.671875 4.460938 39.855469 4.433594 L 41.058594 4.242188 C 41.199219 4.21875 41.339844 4.292969 41.40625 4.417969 L 42.339844 6.269531 C 42.441406 6.46875 42.316406 6.710938 42.097656 6.746094 L 40.269531 7.035156 C 40.089844 7.0625 39.917969 6.941406 39.890625 6.761719 Z M 39.890625 6.761719 " fill-opacity="1" fill-rule="nonzero"/></g></g></g><g clip-path="url(#c5b1ad4c4d)"><g clip-path="url(#00188bb675)"><g clip-path="url(#793ae8f58b)"><path fill="#6db159" d="M 35.210938 6.25 L 41.421875 5.261719 L 41.667969 6.8125 L 35.457031 7.800781 Z M 35.210938 6.25 " fill-opacity="1" fill-rule="nonzero"/></g></g></g><g clip-path="url(#c2ac430b6b)"><g clip-path="url(#e51404dbc1)"><g clip-path="url(#144ea7897e)"><path fill="#6db159" d="M 36.136719 5.675781 L 40.152344 4.496094 L 40.484375 5.636719 L 36.46875 6.8125 Z M 36.136719 5.675781 " fill-opacity="1" fill-rule="nonzero"/></g></g></g><g clip-path="url(#6d1648388c)"><g clip-path="url(#4ad6a9bc38)"><g clip-path="url(#3fa81df60a)"><path fill="#fff3b4" d="M 42.71875 7.289062 L 34.183594 8.675781 L 34.128906 8.355469 L 42.667969 6.96875 Z M 42.71875 7.289062 " fill-opacity="1" fill-rule="nonzero"/></g></g></g><g clip-path="url(#688960ea32)"><g clip-path="url(#a7393eb85f)"><g clip-path="url(#286041522a)"><path fill="#fff3b4" d="M 42.820312 7.726562 L 40.65625 8.011719 L 40.558594 7.28125 L 42.726562 7 Z M 42.820312 7.726562 " fill-opacity="1" fill-rule="nonzero"/></g></g></g><g clip-path="url(#a7db3b5c05)"><g clip-path="url(#bcade91f2f)"><g clip-path="url(#aca23e097e)"><path fill="#fff3b4" d="M 42.84375 7.84375 L 34.394531 8.558594 L 34.375 8.300781 L 42.824219 7.582031 Z M 42.84375 7.84375 " fill-opacity="1" fill-rule="nonzero"/></g></g></g><g clip-path="url(#e66b356f4d)"><g clip-path="url(#b64e3ebe4e)"><g clip-path="url(#86f6d61060)"><path fill="#fff3b4" d="M 43.261719 7.886719 L 34.578125 8.625 L 34.554688 8.367188 L 43.238281 7.632812 Z M 43.261719 7.886719 " fill-opacity="1" fill-rule="nonzero"/></g></g></g><g clip-path="url(#5e9f85ffbd)"><g clip-path="url(#b2e99aaa0d)"><g clip-path="url(#a8fc1d8e06)"><path fill="#fff3b4" d="M 42.863281 7.777344 L 42.597656 7.824219 L 42.457031 7.015625 L 42.722656 6.96875 Z M 42.863281 7.777344 " fill-opacity="1" fill-rule="nonzero"/></g></g></g><g clip-path="url(#0439505ea9)"><g clip-path="url(#1da36e703c)"><g clip-path="url(#bd75b8daba)"><path fill="#fff3b4" d="M 41.070312 7.804688 L 38.609375 8.128906 L 38.574219 7.855469 L 41.035156 7.535156 Z M 41.070312 7.804688 " fill-opacity="1" fill-rule="nonzero"/></g></g></g><g clip-path="url(#c6846c7734)"><g clip-path="url(#d10644907b)"><g clip-path="url(#a51f9be7b0)"><path fill="#fff3b4" d="M 42.863281 7.726562 L 40.695312 8.011719 L 40.601562 7.28125 L 42.769531 7 Z M 42.863281 7.726562 " fill-opacity="1" fill-rule="nonzero"/></g></g></g><g clip-path="url(#0b6e60b792)"><g clip-path="url(#ab01ad6cfb)"><path fill="#fff3b4" d="M 42.878906 7.96875 L 42.410156 7.261719 L 42.765625 7.027344 L 43.234375 7.734375 Z M 42.878906 7.96875 " fill-opacity="1" fill-rule="nonzero"/></g></g><g clip-path="url(#3dbed6cf3f)"><g clip-path="url(#64d690f509)"><g clip-path="url(#ddf7887f0b)"><path fill="#fff3b4" d="M 33.570312 4.097656 C 33.570312 4.097656 33.535156 4.121094 33.5 4.144531 C 33.476562 4.160156 33.453125 4.175781 33.449219 4.179688 C 33.445312 4.179688 33.445312 4.175781 33.445312 4.171875 C 33.445312 4.167969 33.445312 4.152344 33.449219 4.136719 C 33.453125 4.101562 33.460938 4.050781 33.46875 4.015625 C 33.476562 3.988281 33.480469 3.96875 33.480469 3.96875 C 33.46875 3.949219 33.453125 3.929688 33.441406 3.90625 C 33.4375 3.902344 33.433594 3.894531 33.429688 3.886719 C 33.421875 3.875 33.410156 3.859375 33.402344 3.84375 C 33.398438 3.839844 33.398438 3.835938 33.394531 3.832031 C 33.382812 3.816406 33.371094 3.796875 33.363281 3.78125 L 33.359375 3.777344 C 33.347656 3.757812 33.335938 3.742188 33.324219 3.722656 L 33.320312 3.71875 C 33.304688 3.695312 33.292969 3.675781 33.277344 3.652344 C 33.273438 3.644531 33.269531 3.640625 33.265625 3.636719 C 33.253906 3.617188 33.242188 3.601562 33.230469 3.582031 L 33.226562 3.578125 C 33.203125 3.542969 33.179688 3.507812 33.152344 3.472656 C 33.152344 3.472656 33.148438 3.46875 33.148438 3.46875 C 33.140625 3.453125 33.128906 3.441406 33.121094 3.425781 C 33.117188 3.421875 33.117188 3.421875 33.113281 3.417969 C 33.078125 3.367188 33.042969 3.320312 33.007812 3.273438 L 33.007812 3.269531 C 32.964844 3.210938 32.921875 3.152344 32.878906 3.097656 C 32.878906 3.09375 32.875 3.09375 32.875 3.089844 C 32.808594 3.003906 32.75 2.925781 32.695312 2.859375 L 32.691406 2.855469 C 32.585938 2.71875 32.515625 2.632812 32.515625 2.632812 L 32.421875 2.789062 L 32.355469 2.898438 L 32.070312 3.367188 L 32.070312 3.363281 L 32.078125 3.324219 L 32.105469 3.175781 L 32.113281 3.128906 L 32.15625 2.90625 L 32.167969 2.847656 L 32.183594 2.746094 L 32.195312 2.675781 L 32.222656 2.523438 C 32.214844 2.511719 32.207031 2.5 32.195312 2.488281 C 32.183594 2.472656 32.167969 2.457031 32.15625 2.441406 C 32.152344 2.433594 32.148438 2.429688 32.144531 2.425781 C 32.023438 2.28125 31.898438 2.144531 31.792969 2.03125 C 31.648438 1.878906 31.546875 1.777344 31.546875 1.777344 L 31.539062 1.796875 L 31.386719 2.378906 L 31.390625 1.828125 C 31.363281 1.800781 31.339844 1.773438 31.3125 1.746094 C 31.3125 1.746094 31.308594 1.742188 31.308594 1.742188 C 31.160156 1.582031 31.023438 1.445312 30.90625 1.328125 L 30.902344 1.324219 C 30.597656 1.027344 30.382812 0.855469 30.234375 0.757812 L 30.230469 0.753906 C 30.207031 0.738281 30.183594 0.726562 30.164062 0.710938 C 30.144531 0.703125 30.128906 0.691406 30.113281 0.683594 C 30.109375 0.683594 30.101562 0.679688 30.097656 0.675781 C 30.082031 0.667969 30.070312 0.664062 30.058594 0.65625 C 30.046875 0.652344 30.035156 0.648438 30.023438 0.644531 C 30.019531 0.640625 30.015625 0.640625 30.007812 0.640625 C 29.957031 0.625 29.941406 0.628906 29.941406 0.628906 C 29.941406 0.628906 29.929688 0.628906 29.921875 0.636719 C 29.910156 0.648438 29.898438 0.664062 29.890625 0.699219 C 29.886719 0.703125 29.886719 0.710938 29.886719 0.714844 C 29.882812 0.722656 29.882812 0.726562 29.882812 0.734375 C 29.878906 0.75 29.878906 0.769531 29.878906 0.792969 C 29.878906 0.8125 29.878906 0.835938 29.878906 0.863281 C 29.878906 0.871094 29.878906 0.875 29.882812 0.878906 C 29.882812 0.898438 29.882812 0.921875 29.886719 0.941406 C 29.890625 0.957031 29.890625 0.976562 29.894531 0.992188 C 29.894531 1 29.894531 1.007812 29.898438 1.015625 C 29.898438 1.035156 29.902344 1.050781 29.90625 1.070312 C 29.921875 1.148438 29.941406 1.238281 29.96875 1.339844 L 29.96875 1.34375 C 29.976562 1.378906 29.988281 1.421875 30 1.460938 C 30.003906 1.464844 30.003906 1.472656 30.003906 1.476562 C 30.007812 1.492188 30.015625 1.511719 30.019531 1.53125 C 30.023438 1.535156 30.023438 1.539062 30.023438 1.539062 L 30.023438 1.542969 C 30.042969 1.609375 30.066406 1.683594 30.09375 1.761719 L 30.09375 1.765625 C 30.09375 1.769531 30.097656 1.773438 30.097656 1.78125 L 30.097656 1.785156 C 30.160156 1.964844 30.234375 2.179688 30.328125 2.425781 L 30.394531 2.449219 L 30.429688 2.460938 L 30.585938 2.515625 L 30.605469 2.523438 L 30.75 2.574219 L 30.789062 2.585938 L 30.972656 2.648438 L 30.355469 2.558594 C 30.355469 2.558594 30.386719 2.632812 30.433594 2.75 L 30.433594 2.753906 C 30.441406 2.765625 30.445312 2.78125 30.453125 2.792969 C 30.457031 2.804688 30.460938 2.8125 30.464844 2.824219 C 30.492188 2.890625 30.527344 2.964844 30.5625 3.046875 C 30.566406 3.054688 30.566406 3.058594 30.570312 3.066406 C 30.585938 3.101562 30.601562 3.132812 30.617188 3.167969 C 30.621094 3.171875 30.621094 3.175781 30.625 3.179688 C 30.652344 3.242188 30.683594 3.304688 30.714844 3.363281 C 30.71875 3.371094 30.722656 3.378906 30.726562 3.386719 C 30.738281 3.410156 30.75 3.433594 30.761719 3.457031 L 30.765625 3.464844 C 30.765625 3.46875 30.769531 3.472656 30.773438 3.476562 L 30.9375 3.515625 L 31.003906 3.53125 L 31.105469 3.554688 L 31.164062 3.570312 L 31.390625 3.621094 L 31.441406 3.632812 L 31.605469 3.671875 L 30.753906 3.789062 C 30.757812 3.792969 30.761719 3.804688 30.769531 3.820312 C 30.773438 3.828125 30.777344 3.835938 30.785156 3.84375 C 30.796875 3.871094 30.816406 3.902344 30.839844 3.945312 C 30.84375 3.953125 30.847656 3.960938 30.851562 3.96875 C 30.859375 3.984375 30.871094 4.007812 30.882812 4.027344 C 30.886719 4.035156 30.890625 4.042969 30.894531 4.046875 C 30.914062 4.085938 30.9375 4.125 30.960938 4.167969 C 30.964844 4.175781 30.96875 4.183594 30.972656 4.191406 C 30.992188 4.226562 31.015625 4.265625 31.035156 4.300781 C 31.039062 4.304688 31.039062 4.308594 31.039062 4.308594 C 31.042969 4.3125 31.042969 4.316406 31.046875 4.320312 C 31.046875 4.324219 31.050781 4.324219 31.050781 4.328125 C 31.066406 4.355469 31.082031 4.378906 31.097656 4.40625 L 31.097656 4.414062 C 31.101562 4.417969 31.105469 4.421875 31.109375 4.425781 L 31.109375 4.429688 C 31.121094 4.453125 31.136719 4.476562 31.148438 4.496094 C 31.152344 4.5 31.152344 4.503906 31.15625 4.507812 L 31.15625 4.511719 C 31.160156 4.515625 31.160156 4.519531 31.164062 4.523438 C 31.1875 4.5625 31.210938 4.601562 31.234375 4.640625 C 31.238281 4.644531 31.238281 4.648438 31.242188 4.652344 L 31.246094 4.660156 L 31.246094 4.664062 C 31.253906 4.675781 31.265625 4.691406 31.273438 4.703125 L 31.273438 4.707031 C 31.292969 4.738281 31.3125 4.769531 31.332031 4.800781 C 31.335938 4.808594 31.339844 4.8125 31.34375 4.820312 L 31.347656 4.824219 C 31.359375 4.84375 31.371094 4.859375 31.382812 4.878906 C 31.382812 4.882812 31.382812 4.882812 31.386719 4.886719 C 31.386719 4.890625 31.390625 4.894531 31.390625 4.894531 L 31.394531 4.898438 C 31.402344 4.914062 31.414062 4.929688 31.425781 4.945312 L 31.425781 4.949219 C 31.441406 4.972656 31.457031 4.996094 31.472656 5.019531 C 31.472656 5.023438 31.476562 5.023438 31.476562 5.027344 C 31.480469 5.03125 31.484375 5.035156 31.488281 5.039062 L 31.488281 5.042969 C 31.5 5.058594 31.507812 5.070312 31.519531 5.085938 C 31.519531 5.089844 31.519531 5.089844 31.523438 5.09375 C 31.535156 5.109375 31.542969 5.125 31.554688 5.140625 C 31.554688 5.144531 31.558594 5.144531 31.5625 5.148438 C 31.570312 5.164062 31.582031 5.179688 31.59375 5.195312 C 31.59375 5.199219 31.597656 5.199219 31.597656 5.203125 L 31.601562 5.203125 C 31.605469 5.203125 31.625 5.207031 31.652344 5.214844 C 31.691406 5.222656 31.742188 5.234375 31.773438 5.242188 C 31.777344 5.246094 31.78125 5.246094 31.785156 5.246094 C 31.789062 5.25 31.792969 5.25 31.796875 5.25 C 31.800781 5.253906 31.800781 5.253906 31.804688 5.253906 L 31.804688 5.257812 C 31.796875 5.261719 31.769531 5.28125 31.738281 5.300781 C 31.710938 5.320312 31.679688 5.335938 31.679688 5.335938 C 31.679688 5.335938 31.761719 5.46875 31.867188 5.605469 L 31.867188 5.609375 C 31.871094 5.613281 31.875 5.617188 31.878906 5.621094 L 31.882812 5.621094 C 31.914062 5.664062 31.949219 5.703125 31.984375 5.742188 L 31.992188 5.746094 C 32.007812 5.765625 32.027344 5.785156 32.046875 5.800781 C 32.050781 5.804688 32.058594 5.808594 32.0625 5.8125 L 32.070312 5.820312 C 32.226562 5.949219 32.511719 5.707031 32.621094 5.601562 L 32.625 5.597656 C 32.628906 5.59375 32.632812 5.589844 32.636719 5.585938 L 32.640625 5.585938 C 32.65625 5.566406 32.667969 5.558594 32.667969 5.558594 L 32.652344 5.574219 L 32.621094 5.621094 L 32.476562 5.824219 L 32.445312 5.863281 L 32.296875 6.074219 C 32.296875 6.074219 32.328125 6.117188 32.378906 6.179688 L 32.378906 6.183594 C 32.382812 6.183594 32.386719 6.1875 32.386719 6.191406 C 32.390625 6.195312 32.390625 6.195312 32.394531 6.199219 C 32.414062 6.222656 32.4375 6.25 32.460938 6.277344 C 32.464844 6.28125 32.472656 6.289062 32.476562 6.292969 C 32.503906 6.324219 32.535156 6.355469 32.566406 6.386719 C 32.570312 6.394531 32.578125 6.398438 32.582031 6.402344 C 32.605469 6.425781 32.628906 6.449219 32.65625 6.472656 L 32.660156 6.476562 C 32.664062 6.476562 32.664062 6.480469 32.667969 6.484375 L 32.671875 6.488281 C 32.710938 6.523438 32.753906 6.554688 32.796875 6.585938 L 32.800781 6.585938 C 32.804688 6.589844 32.808594 6.589844 32.808594 6.59375 C 32.8125 6.59375 32.816406 6.597656 32.820312 6.601562 C 32.875 6.632812 32.925781 6.660156 32.980469 6.679688 C 32.984375 6.679688 32.988281 6.683594 32.992188 6.683594 C 33 6.683594 33.003906 6.6875 33.007812 6.6875 C 33.03125 6.691406 33.050781 6.695312 33.074219 6.695312 L 33.070312 6.695312 L 33.078125 6.695312 C 33.082031 6.695312 33.089844 6.695312 33.09375 6.695312 L 33.101562 6.695312 C 33.117188 6.695312 33.132812 6.691406 33.152344 6.6875 L 33.261719 6.566406 L 33.273438 6.558594 L 33.433594 6.382812 L 33.457031 6.363281 L 33.386719 6.617188 L 33.34375 6.777344 L 33.402344 6.820312 L 33.417969 6.828125 L 33.480469 6.875 L 33.574219 6.53125 L 33.585938 6.5 L 33.597656 6.921875 C 33.597656 6.921875 33.621094 6.914062 33.65625 6.898438 C 33.679688 6.886719 33.710938 6.871094 33.742188 6.851562 C 33.75 6.84375 33.761719 6.835938 33.769531 6.832031 C 33.796875 6.808594 33.824219 6.785156 33.84375 6.757812 C 34.257812 7.410156 34.519531 7.824219 34.519531 7.824219 C 34.617188 7.882812 34.742188 7.804688 34.726562 7.6875 C 34.726562 7.6875 34.449219 7.285156 34.011719 6.648438 C 34.042969 6.640625 34.070312 6.628906 34.097656 6.613281 C 34.128906 6.597656 34.160156 6.578125 34.183594 6.558594 C 34.234375 6.519531 34.265625 6.484375 34.265625 6.484375 L 33.878906 6.304688 L 34.265625 6.355469 L 34.261719 6.34375 L 34.253906 6.304688 L 34.246094 6.273438 L 34.230469 6.191406 L 33.804688 6.132812 L 33.816406 6.128906 L 34 6.0625 L 34.050781 6.042969 L 34.222656 5.980469 C 34.234375 5.96875 34.242188 5.957031 34.25 5.945312 C 34.25 5.941406 34.25 5.9375 34.253906 5.9375 C 34.253906 5.929688 34.257812 5.925781 34.261719 5.921875 L 34.261719 5.917969 C 34.269531 5.898438 34.277344 5.878906 34.28125 5.855469 C 34.28125 5.847656 34.285156 5.835938 34.285156 5.824219 C 34.289062 5.769531 34.285156 5.710938 34.277344 5.648438 C 34.277344 5.640625 34.273438 5.636719 34.273438 5.632812 C 34.273438 5.628906 34.273438 5.625 34.273438 5.621094 C 34.261719 5.570312 34.25 5.519531 34.230469 5.464844 C 34.230469 5.464844 34.230469 5.460938 34.230469 5.460938 C 34.226562 5.457031 34.226562 5.449219 34.226562 5.445312 C 34.214844 5.410156 34.203125 5.378906 34.191406 5.351562 C 34.1875 5.34375 34.1875 5.335938 34.183594 5.328125 C 34.164062 5.285156 34.148438 5.242188 34.128906 5.203125 C 34.128906 5.199219 34.125 5.191406 34.121094 5.1875 C 34.105469 5.152344 34.089844 5.121094 34.078125 5.09375 C 34.078125 5.089844 34.074219 5.089844 34.074219 5.085938 C 34.070312 5.082031 34.070312 5.078125 34.066406 5.074219 L 34.066406 5.070312 C 34.050781 5.042969 34.039062 5.019531 34.027344 5 C 34.027344 4.996094 34.023438 4.992188 34.023438 4.988281 L 34.015625 4.980469 C 34.007812 4.960938 34.003906 4.953125 34.003906 4.953125 L 33.730469 5.011719 L 33.699219 5.019531 L 33.457031 5.070312 L 33.449219 5.074219 L 33.378906 5.089844 C 33.378906 5.089844 33.394531 5.082031 33.414062 5.074219 C 33.421875 5.074219 33.425781 5.070312 33.433594 5.066406 L 33.4375 5.066406 C 33.574219 5.007812 33.914062 4.84375 33.859375 4.644531 C 33.835938 4.5625 33.792969 4.472656 33.75 4.390625 C 33.746094 4.382812 33.746094 4.378906 33.742188 4.375 L 33.742188 4.371094 C 33.71875 4.328125 33.691406 4.285156 33.667969 4.25 L 33.667969 4.246094 C 33.664062 4.238281 33.660156 4.234375 33.65625 4.230469 L 33.65625 4.226562 C 33.613281 4.15625 33.578125 4.105469 33.570312 4.097656 " fill-opacity="1" fill-rule="nonzero"/></g></g></g><g fill="#fefefe" fill-opacity="1"><g transform="translate(24.938046, 35.073382)"><g><path d="M 0.46875 0 L 0.234375 0 L 0.234375 -2.171875 L 0.46875 -2.171875 L 0.46875 -1.1875 L 1.453125 -1.1875 L 1.453125 -2.171875 L 1.671875 -2.171875 L 1.671875 0 L 1.453125 0 L 1.453125 -0.96875 L 0.46875 -0.96875 Z M 0.46875 0 "/></g></g></g><g fill="#fefefe" fill-opacity="1"><g transform="translate(27.381992, 35.073382)"><g><path d="M 0.46875 -1.890625 C 0.488281 -1.859375 0.5 -1.820312 0.5 -1.78125 C 0.5 -1.75 0.488281 -1.71875 0.46875 -1.6875 C 0.4375 -1.65625 0.398438 -1.640625 0.359375 -1.640625 C 0.328125 -1.640625 0.296875 -1.65625 0.265625 -1.6875 C 0.234375 -1.71875 0.21875 -1.75 0.21875 -1.78125 C 0.21875 -1.820312 0.234375 -1.859375 0.265625 -1.890625 C 0.296875 -1.910156 0.328125 -1.921875 0.359375 -1.921875 C 0.398438 -1.921875 0.4375 -1.910156 0.46875 -1.890625 Z M 0.484375 0 L 0.25 0 L 0.25 -1.40625 L 0.484375 -1.40625 Z M 0.484375 0 "/></g></g></g><g fill="#fefefe" fill-opacity="1"><g transform="translate(28.646978, 35.073382)"><g><path d="M 1.375 -0.703125 C 1.375 -0.835938 1.328125 -0.957031 1.234375 -1.0625 C 1.140625 -1.164062 1.019531 -1.21875 0.875 -1.21875 C 0.738281 -1.21875 0.625 -1.164062 0.53125 -1.0625 C 0.4375 -0.957031 0.390625 -0.835938 0.390625 -0.703125 C 0.390625 -0.566406 0.4375 -0.445312 0.53125 -0.34375 C 0.625 -0.238281 0.738281 -0.1875 0.875 -0.1875 C 1.019531 -0.1875 1.140625 -0.238281 1.234375 -0.34375 C 1.328125 -0.445312 1.375 -0.566406 1.375 -0.703125 Z M 0.375 0.1875 C 0.394531 0.28125 0.441406 0.359375 0.515625 0.421875 C 0.609375 0.523438 0.726562 0.578125 0.875 0.578125 C 1.007812 0.578125 1.128906 0.523438 1.234375 0.421875 C 1.328125 0.328125 1.375 0.207031 1.375 0.0625 L 1.375 -0.234375 C 1.363281 -0.222656 1.351562 -0.207031 1.34375 -0.1875 C 1.207031 -0.0390625 1.039062 0.03125 0.84375 0.03125 C 0.644531 0.03125 0.484375 -0.0390625 0.359375 -0.1875 C 0.222656 -0.332031 0.15625 -0.503906 0.15625 -0.703125 C 0.15625 -0.898438 0.222656 -1.070312 0.359375 -1.21875 C 0.484375 -1.363281 0.644531 -1.4375 0.84375 -1.4375 C 1.03125 -1.4375 1.195312 -1.363281 1.34375 -1.21875 C 1.351562 -1.195312 1.363281 -1.179688 1.375 -1.171875 L 1.375 -1.40625 L 1.59375 -1.40625 L 1.59375 0.0625 C 1.59375 0.269531 1.523438 0.441406 1.390625 0.578125 C 1.242188 0.722656 1.070312 0.796875 0.875 0.796875 C 0.675781 0.796875 0.503906 0.722656 0.359375 0.578125 C 0.242188 0.472656 0.175781 0.34375 0.15625 0.1875 Z M 0.375 0.1875 "/></g></g></g><g fill="#fefefe" fill-opacity="1"><g transform="translate(31.017638, 35.073382)"><g><path d="M 0.46875 -1.890625 C 0.488281 -1.859375 0.5 -1.820312 0.5 -1.78125 C 0.5 -1.75 0.488281 -1.71875 0.46875 -1.6875 C 0.4375 -1.65625 0.398438 -1.640625 0.359375 -1.640625 C 0.328125 -1.640625 0.296875 -1.65625 0.265625 -1.6875 C 0.234375 -1.71875 0.21875 -1.75 0.21875 -1.78125 C 0.21875 -1.820312 0.234375 -1.859375 0.265625 -1.890625 C 0.296875 -1.910156 0.328125 -1.921875 0.359375 -1.921875 C 0.398438 -1.921875 0.4375 -1.910156 0.46875 -1.890625 Z M 0.484375 0 L 0.25 0 L 0.25 -1.40625 L 0.484375 -1.40625 Z M 0.484375 0 "/></g></g></g><g fill="#fefefe" fill-opacity="1"><g transform="translate(32.282624, 35.073382)"><g><path d="M 1.609375 -0.734375 L 1.609375 -0.609375 L 0.375 -0.609375 C 0.394531 -0.492188 0.453125 -0.394531 0.546875 -0.3125 C 0.648438 -0.238281 0.757812 -0.203125 0.875 -0.203125 C 0.957031 -0.203125 1.035156 -0.222656 1.109375 -0.265625 C 1.179688 -0.296875 1.242188 -0.34375 1.296875 -0.40625 L 1.546875 -0.40625 C 1.484375 -0.269531 1.394531 -0.164062 1.28125 -0.09375 C 1.15625 -0.0195312 1.03125 0.015625 0.90625 0.015625 C 0.78125 0.015625 0.675781 0 0.59375 -0.03125 C 0.5 -0.0703125 0.421875 -0.125 0.359375 -0.1875 C 0.210938 -0.332031 0.140625 -0.503906 0.140625 -0.703125 C 0.140625 -0.910156 0.210938 -1.085938 0.359375 -1.234375 C 0.503906 -1.367188 0.675781 -1.4375 0.875 -1.4375 C 1.070312 -1.4375 1.242188 -1.367188 1.390625 -1.234375 C 1.535156 -1.085938 1.609375 -0.921875 1.609375 -0.734375 Z M 1.375 -0.8125 C 1.34375 -0.925781 1.28125 -1.023438 1.1875 -1.109375 C 1.101562 -1.179688 1 -1.21875 0.875 -1.21875 C 0.695312 -1.21875 0.554688 -1.132812 0.453125 -0.96875 C 0.410156 -0.914062 0.382812 -0.863281 0.375 -0.8125 Z M 1.375 -0.8125 "/></g></g></g><g fill="#fefefe" fill-opacity="1"><g transform="translate(34.554504, 35.073382)"><g><path d="M 1.203125 0 L 1.203125 -0.875 C 1.203125 -0.96875 1.179688 -1.046875 1.140625 -1.109375 C 1.097656 -1.171875 1.03125 -1.203125 0.9375 -1.203125 C 0.84375 -1.203125 0.765625 -1.1875 0.703125 -1.15625 C 0.648438 -1.113281 0.601562 -1.066406 0.5625 -1.015625 C 0.5 -0.910156 0.46875 -0.769531 0.46875 -0.59375 L 0.46875 0 L 0.234375 0 L 0.234375 -1.40625 L 0.46875 -1.40625 L 0.46875 -1.15625 C 0.507812 -1.238281 0.566406 -1.304688 0.640625 -1.359375 C 0.710938 -1.410156 0.800781 -1.4375 0.90625 -1.4375 C 1.007812 -1.4375 1.085938 -1.421875 1.140625 -1.390625 C 1.203125 -1.359375 1.253906 -1.316406 1.296875 -1.265625 C 1.390625 -1.171875 1.4375 -1.039062 1.4375 -0.875 L 1.4375 0 Z M 1.203125 0 "/></g></g></g><g fill="#fefefe" fill-opacity="1"><g transform="translate(36.711677, 35.073382)"><g><path d="M 0.46875 -1.890625 C 0.488281 -1.859375 0.5 -1.820312 0.5 -1.78125 C 0.5 -1.75 0.488281 -1.71875 0.46875 -1.6875 C 0.4375 -1.65625 0.398438 -1.640625 0.359375 -1.640625 C 0.328125 -1.640625 0.296875 -1.65625 0.265625 -1.6875 C 0.234375 -1.71875 0.21875 -1.75 0.21875 -1.78125 C 0.21875 -1.820312 0.234375 -1.859375 0.265625 -1.890625 C 0.296875 -1.910156 0.328125 -1.921875 0.359375 -1.921875 C 0.398438 -1.921875 0.4375 -1.910156 0.46875 -1.890625 Z M 0.484375 0 L 0.25 0 L 0.25 -1.40625 L 0.484375 -1.40625 Z M 0.484375 0 "/></g></g></g><g fill="#fefefe" fill-opacity="1"><g transform="translate(37.976663, 35.073382)"><g><path d="M 0.03125 0 L 0.953125 -1.1875 L 0.09375 -1.1875 L 0.09375 -1.40625 L 1.375 -1.40625 L 0.453125 -0.203125 L 1.421875 -0.203125 L 1.421875 0 Z M 0.03125 0 "/></g></g></g><g fill="#fefefe" fill-opacity="1"><g transform="translate(39.961771, 35.073382)"><g><path d="M 1.359375 -0.703125 C 1.359375 -0.835938 1.3125 -0.957031 1.21875 -1.0625 C 1.125 -1.164062 1.003906 -1.21875 0.859375 -1.21875 C 0.722656 -1.21875 0.609375 -1.164062 0.515625 -1.0625 C 0.410156 -0.957031 0.359375 -0.835938 0.359375 -0.703125 C 0.359375 -0.566406 0.410156 -0.445312 0.515625 -0.34375 C 0.609375 -0.238281 0.722656 -0.1875 0.859375 -0.1875 C 1.003906 -0.1875 1.125 -0.238281 1.21875 -0.34375 C 1.3125 -0.445312 1.359375 -0.566406 1.359375 -0.703125 Z M 1.578125 0 L 1.359375 0 L 1.359375 -0.234375 C 1.335938 -0.222656 1.320312 -0.207031 1.3125 -0.1875 C 1.175781 -0.0390625 1.015625 0.03125 0.828125 0.03125 C 0.628906 0.03125 0.46875 -0.0390625 0.34375 -0.1875 C 0.207031 -0.332031 0.140625 -0.503906 0.140625 -0.703125 C 0.140625 -0.898438 0.207031 -1.070312 0.34375 -1.21875 C 0.46875 -1.363281 0.628906 -1.4375 0.828125 -1.4375 C 1.015625 -1.4375 1.175781 -1.363281 1.3125 -1.21875 C 1.320312 -1.195312 1.335938 -1.175781 1.359375 -1.15625 L 1.359375 -1.40625 L 1.578125 -1.40625 Z M 1.578125 0 "/></g></g></g><g fill="#fefefe" fill-opacity="1"><g transform="translate(42.313311, 35.073382)"><g><path d="M 1.546875 -0.90625 L 1.3125 -0.90625 C 1.269531 -0.988281 1.207031 -1.054688 1.125 -1.109375 C 1.039062 -1.171875 0.960938 -1.203125 0.890625 -1.203125 C 0.804688 -1.203125 0.734375 -1.1875 0.671875 -1.15625 C 0.609375 -1.132812 0.554688 -1.097656 0.515625 -1.046875 C 0.421875 -0.953125 0.375 -0.835938 0.375 -0.703125 C 0.375 -0.566406 0.421875 -0.445312 0.515625 -0.34375 C 0.609375 -0.25 0.722656 -0.203125 0.859375 -0.203125 C 0.953125 -0.203125 1.035156 -0.222656 1.109375 -0.265625 C 1.179688 -0.316406 1.238281 -0.378906 1.28125 -0.453125 L 1.53125 -0.453125 C 1.457031 -0.234375 1.304688 -0.0820312 1.078125 0 C 1.035156 0.0078125 0.988281 0.0195312 0.9375 0.03125 L 0.875 0.140625 C 0.875 0.140625 0.898438 0.140625 0.953125 0.140625 C 1.003906 0.140625 1.050781 0.15625 1.09375 0.1875 C 1.132812 0.207031 1.164062 0.238281 1.1875 0.28125 C 1.238281 0.375 1.242188 0.476562 1.203125 0.59375 C 1.148438 0.707031 1.046875 0.773438 0.890625 0.796875 C 0.742188 0.816406 0.597656 0.796875 0.453125 0.734375 L 0.53125 0.578125 C 0.644531 0.617188 0.757812 0.628906 0.875 0.609375 C 0.988281 0.597656 1.046875 0.5625 1.046875 0.5 C 1.066406 0.382812 1.019531 0.316406 0.90625 0.296875 C 0.851562 0.296875 0.804688 0.300781 0.765625 0.3125 C 0.710938 0.3125 0.664062 0.316406 0.625 0.328125 L 0.765625 0.03125 C 0.703125 0.0195312 0.640625 0 0.578125 -0.03125 C 0.492188 -0.0703125 0.414062 -0.125 0.34375 -0.1875 C 0.207031 -0.332031 0.140625 -0.503906 0.140625 -0.703125 C 0.140625 -0.898438 0.207031 -1.070312 0.34375 -1.21875 C 0.488281 -1.363281 0.660156 -1.4375 0.859375 -1.4375 C 1.023438 -1.4375 1.171875 -1.382812 1.296875 -1.28125 C 1.421875 -1.1875 1.503906 -1.0625 1.546875 -0.90625 Z M 1.546875 -0.90625 "/></g></g></g><g fill="#fefefe" fill-opacity="1"><g transform="translate(44.50872, 35.073382)"><g><path d="M 1.359375 -0.703125 C 1.359375 -0.835938 1.3125 -0.957031 1.21875 -1.0625 C 1.125 -1.164062 1.003906 -1.21875 0.859375 -1.21875 C 0.722656 -1.21875 0.609375 -1.164062 0.515625 -1.0625 C 0.410156 -0.957031 0.359375 -0.835938 0.359375 -0.703125 C 0.359375 -0.566406 0.410156 -0.445312 0.515625 -0.34375 C 0.609375 -0.238281 0.722656 -0.1875 0.859375 -0.1875 C 1.003906 -0.1875 1.125 -0.238281 1.21875 -0.34375 C 1.3125 -0.445312 1.359375 -0.566406 1.359375 -0.703125 Z M 1.578125 0 L 1.359375 0 L 1.359375 -0.234375 C 1.335938 -0.222656 1.320312 -0.207031 1.3125 -0.1875 C 1.175781 -0.0390625 1.015625 0.03125 0.828125 0.03125 C 0.628906 0.03125 0.46875 -0.0390625 0.34375 -0.1875 C 0.207031 -0.332031 0.140625 -0.503906 0.140625 -0.703125 C 0.140625 -0.898438 0.207031 -1.070312 0.34375 -1.21875 C 0.46875 -1.363281 0.628906 -1.4375 0.828125 -1.4375 C 1.015625 -1.4375 1.175781 -1.363281 1.3125 -1.21875 C 1.320312 -1.195312 1.335938 -1.175781 1.359375 -1.15625 L 1.359375 -1.40625 L 1.578125 -1.40625 Z M 0.328125 -1.65625 C 0.328125 -1.789062 0.367188 -1.898438 0.453125 -1.984375 C 0.492188 -2.023438 0.554688 -2.046875 0.640625 -2.046875 C 0.710938 -2.046875 0.769531 -2.035156 0.8125 -2.015625 C 0.851562 -1.984375 0.882812 -1.953125 0.90625 -1.921875 C 0.9375 -1.890625 0.960938 -1.859375 0.984375 -1.828125 C 1.003906 -1.804688 1.035156 -1.796875 1.078125 -1.796875 C 1.117188 -1.796875 1.148438 -1.800781 1.171875 -1.8125 C 1.179688 -1.820312 1.191406 -1.835938 1.203125 -1.859375 C 1.210938 -1.878906 1.21875 -1.929688 1.21875 -2.015625 L 1.375 -2.015625 C 1.394531 -1.867188 1.363281 -1.753906 1.28125 -1.671875 C 1.226562 -1.628906 1.164062 -1.609375 1.09375 -1.609375 C 1.007812 -1.609375 0.945312 -1.625 0.90625 -1.65625 C 0.863281 -1.675781 0.832031 -1.707031 0.8125 -1.75 C 0.78125 -1.78125 0.753906 -1.804688 0.734375 -1.828125 C 0.703125 -1.859375 0.664062 -1.875 0.625 -1.875 C 0.550781 -1.875 0.507812 -1.835938 0.5 -1.765625 C 0.488281 -1.734375 0.484375 -1.695312 0.484375 -1.65625 Z M 0.328125 -1.65625 "/></g></g></g><g fill="#fefefe" fill-opacity="1"><g transform="translate(46.860259, 35.073382)"><g><path d="M 1.390625 -0.703125 C 1.390625 -0.847656 1.335938 -0.96875 1.234375 -1.0625 C 1.140625 -1.164062 1.019531 -1.21875 0.875 -1.21875 C 0.738281 -1.21875 0.617188 -1.164062 0.515625 -1.0625 C 0.410156 -0.96875 0.359375 -0.847656 0.359375 -0.703125 C 0.359375 -0.566406 0.410156 -0.445312 0.515625 -0.34375 C 0.617188 -0.25 0.738281 -0.203125 0.875 -0.203125 C 1.019531 -0.203125 1.140625 -0.25 1.234375 -0.34375 C 1.335938 -0.445312 1.390625 -0.566406 1.390625 -0.703125 Z M 1.609375 -0.703125 C 1.609375 -0.503906 1.535156 -0.332031 1.390625 -0.1875 C 1.242188 -0.0507812 1.070312 0.015625 0.875 0.015625 C 0.675781 0.015625 0.503906 -0.0507812 0.359375 -0.1875 C 0.210938 -0.332031 0.140625 -0.503906 0.140625 -0.703125 C 0.140625 -0.910156 0.210938 -1.085938 0.359375 -1.234375 C 0.503906 -1.367188 0.675781 -1.4375 0.875 -1.4375 C 1.070312 -1.4375 1.242188 -1.367188 1.390625 -1.234375 C 1.535156 -1.085938 1.609375 -0.910156 1.609375 -0.703125 Z M 1.609375 -0.703125 "/></g></g></g><g fill="#fefefe" fill-opacity="1"><g transform="translate(49.148074, 35.073382)"><g/></g></g><g fill="#fefefe" fill-opacity="1"><g transform="translate(50.543702, 35.073382)"><g><path d="M 1.609375 -0.734375 L 1.609375 -0.609375 L 0.375 -0.609375 C 0.394531 -0.492188 0.453125 -0.394531 0.546875 -0.3125 C 0.648438 -0.238281 0.757812 -0.203125 0.875 -0.203125 C 0.957031 -0.203125 1.035156 -0.222656 1.109375 -0.265625 C 1.179688 -0.296875 1.242188 -0.34375 1.296875 -0.40625 L 1.546875 -0.40625 C 1.484375 -0.269531 1.394531 -0.164062 1.28125 -0.09375 C 1.15625 -0.0195312 1.03125 0.015625 0.90625 0.015625 C 0.78125 0.015625 0.675781 0 0.59375 -0.03125 C 0.5 -0.0703125 0.421875 -0.125 0.359375 -0.1875 C 0.210938 -0.332031 0.140625 -0.503906 0.140625 -0.703125 C 0.140625 -0.910156 0.210938 -1.085938 0.359375 -1.234375 C 0.503906 -1.367188 0.675781 -1.4375 0.875 -1.4375 C 1.070312 -1.4375 1.242188 -1.367188 1.390625 -1.234375 C 1.535156 -1.085938 1.609375 -0.921875 1.609375 -0.734375 Z M 1.375 -0.8125 C 1.34375 -0.925781 1.28125 -1.023438 1.1875 -1.109375 C 1.101562 -1.179688 1 -1.21875 0.875 -1.21875 C 0.695312 -1.21875 0.554688 -1.132812 0.453125 -0.96875 C 0.410156 -0.914062 0.382812 -0.863281 0.375 -0.8125 Z M 1.375 -0.8125 "/></g></g></g><g fill="#fefefe" fill-opacity="1"><g transform="translate(52.815582, 35.073382)"><g/></g></g><g fill="#fefefe" fill-opacity="1"><g transform="translate(54.21121, 35.073382)"><g><path d="M 0.46875 0 L 0.234375 0 L 0.234375 -2.171875 L 0.46875 -2.171875 Z M 0.46875 0 "/></g></g></g><g fill="#fefefe" fill-opacity="1"><g transform="translate(55.447518, 35.073382)"><g><path d="M 2.015625 0 L 2.015625 -0.890625 C 2.015625 -1.023438 1.96875 -1.125 1.875 -1.1875 C 1.84375 -1.207031 1.796875 -1.21875 1.734375 -1.21875 C 1.671875 -1.21875 1.609375 -1.195312 1.546875 -1.15625 C 1.492188 -1.125 1.445312 -1.078125 1.40625 -1.015625 C 1.394531 -0.992188 1.382812 -0.96875 1.375 -0.9375 C 1.375 -0.914062 1.375 -0.898438 1.375 -0.890625 L 1.375 0 L 1.15625 0 L 1.15625 -0.890625 C 1.15625 -1.023438 1.109375 -1.125 1.015625 -1.1875 C 0.984375 -1.207031 0.9375 -1.21875 0.875 -1.21875 C 0.800781 -1.21875 0.738281 -1.195312 0.6875 -1.15625 C 0.625 -1.125 0.578125 -1.078125 0.546875 -1.015625 C 0.503906 -0.929688 0.476562 -0.832031 0.46875 -0.71875 L 0.46875 0 L 0.234375 0 L 0.234375 -1.40625 L 0.46875 -1.40625 L 0.46875 -1.1875 C 0.507812 -1.257812 0.5625 -1.316406 0.625 -1.359375 C 0.695312 -1.410156 0.78125 -1.4375 0.875 -1.4375 C 0.96875 -1.4375 1.046875 -1.421875 1.109375 -1.390625 C 1.171875 -1.359375 1.222656 -1.316406 1.265625 -1.265625 C 1.285156 -1.242188 1.300781 -1.210938 1.3125 -1.171875 C 1.363281 -1.242188 1.421875 -1.304688 1.484375 -1.359375 C 1.554688 -1.410156 1.640625 -1.4375 1.734375 -1.4375 C 1.835938 -1.4375 1.914062 -1.421875 1.96875 -1.390625 C 2.03125 -1.359375 2.082031 -1.316406 2.125 -1.265625 C 2.195312 -1.171875 2.234375 -1.046875 2.234375 -0.890625 L 2.234375 0 Z M 2.015625 0 "/></g></g></g><g fill="#fefefe" fill-opacity="1"><g transform="translate(58.414031, 35.073382)"><g><path d="M 0.46875 0.796875 L 0.234375 0.796875 L 0.234375 -1.40625 L 0.46875 -1.40625 L 0.46875 -1.15625 C 0.476562 -1.175781 0.488281 -1.195312 0.5 -1.21875 C 0.632812 -1.363281 0.796875 -1.4375 0.984375 -1.4375 C 1.179688 -1.4375 1.347656 -1.363281 1.484375 -1.21875 C 1.609375 -1.070312 1.671875 -0.898438 1.671875 -0.703125 C 1.671875 -0.503906 1.609375 -0.332031 1.484375 -0.1875 C 1.347656 -0.0390625 1.179688 0.03125 0.984375 0.03125 C 0.796875 0.03125 0.632812 -0.0390625 0.5 -0.1875 C 0.488281 -0.207031 0.476562 -0.222656 0.46875 -0.234375 Z M 1.453125 -0.703125 C 1.453125 -0.835938 1.40625 -0.957031 1.3125 -1.0625 C 1.21875 -1.164062 1.097656 -1.21875 0.953125 -1.21875 C 0.816406 -1.21875 0.703125 -1.164062 0.609375 -1.0625 C 0.515625 -0.957031 0.46875 -0.835938 0.46875 -0.703125 C 0.46875 -0.566406 0.515625 -0.445312 0.609375 -0.34375 C 0.703125 -0.238281 0.816406 -0.1875 0.953125 -0.1875 C 1.097656 -0.1875 1.21875 -0.238281 1.3125 -0.34375 C 1.40625 -0.445312 1.453125 -0.566406 1.453125 -0.703125 Z M 1.453125 -0.703125 "/></g></g></g><g fill="#fefefe" fill-opacity="1"><g transform="translate(60.765572, 35.073382)"><g><path d="M 1.609375 -0.734375 L 1.609375 -0.609375 L 0.375 -0.609375 C 0.394531 -0.492188 0.453125 -0.394531 0.546875 -0.3125 C 0.648438 -0.238281 0.757812 -0.203125 0.875 -0.203125 C 0.957031 -0.203125 1.035156 -0.222656 1.109375 -0.265625 C 1.179688 -0.296875 1.242188 -0.34375 1.296875 -0.40625 L 1.546875 -0.40625 C 1.484375 -0.269531 1.394531 -0.164062 1.28125 -0.09375 C 1.15625 -0.0195312 1.03125 0.015625 0.90625 0.015625 C 0.78125 0.015625 0.675781 0 0.59375 -0.03125 C 0.5 -0.0703125 0.421875 -0.125 0.359375 -0.1875 C 0.210938 -0.332031 0.140625 -0.503906 0.140625 -0.703125 C 0.140625 -0.910156 0.210938 -1.085938 0.359375 -1.234375 C 0.503906 -1.367188 0.675781 -1.4375 0.875 -1.4375 C 1.070312 -1.4375 1.242188 -1.367188 1.390625 -1.234375 C 1.535156 -1.085938 1.609375 -0.921875 1.609375 -0.734375 Z M 1.375 -0.8125 C 1.34375 -0.925781 1.28125 -1.023438 1.1875 -1.109375 C 1.101562 -1.179688 1 -1.21875 0.875 -1.21875 C 0.695312 -1.21875 0.554688 -1.132812 0.453125 -0.96875 C 0.410156 -0.914062 0.382812 -0.863281 0.375 -0.8125 Z M 1.375 -0.8125 "/></g></g></g><g fill="#fefefe" fill-opacity="1"><g transform="translate(63.037454, 35.073382)"><g><path d="M 0.953125 -1.109375 C 0.910156 -1.160156 0.859375 -1.1875 0.796875 -1.1875 C 0.734375 -1.1875 0.679688 -1.171875 0.640625 -1.140625 C 0.597656 -1.097656 0.566406 -1.054688 0.546875 -1.015625 C 0.492188 -0.921875 0.46875 -0.816406 0.46875 -0.703125 L 0.46875 0 L 0.234375 0 L 0.234375 -1.40625 L 0.46875 -1.40625 L 0.46875 -1.109375 L 0.46875 -1.171875 C 0.539062 -1.347656 0.65625 -1.4375 0.8125 -1.4375 C 0.863281 -1.4375 0.910156 -1.425781 0.953125 -1.40625 Z M 0.953125 -1.109375 "/></g></g></g><g fill="#fefefe" fill-opacity="1"><g transform="translate(64.563725, 35.073382)"><g><path d="M 2.015625 0 L 2.015625 -0.890625 C 2.015625 -1.023438 1.96875 -1.125 1.875 -1.1875 C 1.84375 -1.207031 1.796875 -1.21875 1.734375 -1.21875 C 1.671875 -1.21875 1.609375 -1.195312 1.546875 -1.15625 C 1.492188 -1.125 1.445312 -1.078125 1.40625 -1.015625 C 1.394531 -0.992188 1.382812 -0.96875 1.375 -0.9375 C 1.375 -0.914062 1.375 -0.898438 1.375 -0.890625 L 1.375 0 L 1.15625 0 L 1.15625 -0.890625 C 1.15625 -1.023438 1.109375 -1.125 1.015625 -1.1875 C 0.984375 -1.207031 0.9375 -1.21875 0.875 -1.21875 C 0.800781 -1.21875 0.738281 -1.195312 0.6875 -1.15625 C 0.625 -1.125 0.578125 -1.078125 0.546875 -1.015625 C 0.503906 -0.929688 0.476562 -0.832031 0.46875 -0.71875 L 0.46875 0 L 0.234375 0 L 0.234375 -1.40625 L 0.46875 -1.40625 L 0.46875 -1.1875 C 0.507812 -1.257812 0.5625 -1.316406 0.625 -1.359375 C 0.695312 -1.410156 0.78125 -1.4375 0.875 -1.4375 C 0.96875 -1.4375 1.046875 -1.421875 1.109375 -1.390625 C 1.171875 -1.359375 1.222656 -1.316406 1.265625 -1.265625 C 1.285156 -1.242188 1.300781 -1.210938 1.3125 -1.171875 C 1.363281 -1.242188 1.421875 -1.304688 1.484375 -1.359375 C 1.554688 -1.410156 1.640625 -1.4375 1.734375 -1.4375 C 1.835938 -1.4375 1.914062 -1.421875 1.96875 -1.390625 C 2.03125 -1.359375 2.082031 -1.316406 2.125 -1.265625 C 2.195312 -1.171875 2.234375 -1.046875 2.234375 -0.890625 L 2.234375 0 Z M 2.015625 0 "/></g></g></g><g fill="#fefefe" fill-opacity="1"><g transform="translate(67.53024, 35.073382)"><g><path d="M 1.609375 -0.734375 L 1.609375 -0.609375 L 0.375 -0.609375 C 0.394531 -0.492188 0.453125 -0.394531 0.546875 -0.3125 C 0.648438 -0.238281 0.757812 -0.203125 0.875 -0.203125 C 0.957031 -0.203125 1.035156 -0.222656 1.109375 -0.265625 C 1.179688 -0.296875 1.242188 -0.34375 1.296875 -0.40625 L 1.546875 -0.40625 C 1.484375 -0.269531 1.394531 -0.164062 1.28125 -0.09375 C 1.15625 -0.0195312 1.03125 0.015625 0.90625 0.015625 C 0.78125 0.015625 0.675781 0 0.59375 -0.03125 C 0.5 -0.0703125 0.421875 -0.125 0.359375 -0.1875 C 0.210938 -0.332031 0.140625 -0.503906 0.140625 -0.703125 C 0.140625 -0.910156 0.210938 -1.085938 0.359375 -1.234375 C 0.503906 -1.367188 0.675781 -1.4375 0.875 -1.4375 C 1.070312 -1.4375 1.242188 -1.367188 1.390625 -1.234375 C 1.535156 -1.085938 1.609375 -0.921875 1.609375 -0.734375 Z M 1.375 -0.8125 C 1.34375 -0.925781 1.28125 -1.023438 1.1875 -1.109375 C 1.101562 -1.179688 1 -1.21875 0.875 -1.21875 C 0.695312 -1.21875 0.554688 -1.132812 0.453125 -0.96875 C 0.410156 -0.914062 0.382812 -0.863281 0.375 -0.8125 Z M 1.375 -0.8125 "/></g></g></g><g fill="#fefefe" fill-opacity="1"><g transform="translate(69.802121, 35.073382)"><g><path d="M 1.359375 -0.703125 C 1.359375 -0.835938 1.3125 -0.957031 1.21875 -1.0625 C 1.125 -1.164062 1.003906 -1.21875 0.859375 -1.21875 C 0.722656 -1.21875 0.609375 -1.164062 0.515625 -1.0625 C 0.410156 -0.957031 0.359375 -0.835938 0.359375 -0.703125 C 0.359375 -0.566406 0.410156 -0.445312 0.515625 -0.34375 C 0.609375 -0.238281 0.722656 -0.1875 0.859375 -0.1875 C 1.003906 -0.1875 1.125 -0.238281 1.21875 -0.34375 C 1.3125 -0.445312 1.359375 -0.566406 1.359375 -0.703125 Z M 1.578125 0 L 1.359375 0 L 1.359375 -0.234375 C 1.335938 -0.222656 1.320312 -0.207031 1.3125 -0.1875 C 1.175781 -0.0390625 1.015625 0.03125 0.828125 0.03125 C 0.628906 0.03125 0.46875 -0.0390625 0.34375 -0.1875 C 0.207031 -0.332031 0.140625 -0.503906 0.140625 -0.703125 C 0.140625 -0.898438 0.207031 -1.070312 0.34375 -1.21875 C 0.46875 -1.363281 0.628906 -1.4375 0.828125 -1.4375 C 1.015625 -1.4375 1.175781 -1.363281 1.3125 -1.21875 C 1.320312 -1.195312 1.335938 -1.175781 1.359375 -1.15625 L 1.359375 -1.40625 L 1.578125 -1.40625 Z M 1.578125 0 "/></g></g></g><g fill="#fefefe" fill-opacity="1"><g transform="translate(72.153663, 35.073382)"><g><path d="M 0.46875 0 L 0.234375 0 L 0.234375 -2.390625 L 0.46875 -2.390625 L 0.46875 -1.15625 C 0.476562 -1.175781 0.488281 -1.195312 0.5 -1.21875 C 0.632812 -1.363281 0.796875 -1.4375 0.984375 -1.4375 C 1.179688 -1.4375 1.347656 -1.363281 1.484375 -1.21875 C 1.609375 -1.070312 1.671875 -0.898438 1.671875 -0.703125 C 1.671875 -0.503906 1.609375 -0.332031 1.484375 -0.1875 C 1.347656 -0.0390625 1.179688 0.03125 0.984375 0.03125 C 0.796875 0.03125 0.632812 -0.0390625 0.5 -0.1875 C 0.488281 -0.207031 0.476562 -0.222656 0.46875 -0.234375 Z M 1.453125 -0.703125 C 1.453125 -0.835938 1.40625 -0.957031 1.3125 -1.0625 C 1.21875 -1.164062 1.097656 -1.21875 0.953125 -1.21875 C 0.816406 -1.21875 0.703125 -1.164062 0.609375 -1.0625 C 0.515625 -0.957031 0.46875 -0.835938 0.46875 -0.703125 C 0.46875 -0.566406 0.515625 -0.445312 0.609375 -0.34375 C 0.703125 -0.238281 0.816406 -0.1875 0.953125 -0.1875 C 1.097656 -0.1875 1.21875 -0.238281 1.3125 -0.34375 C 1.40625 -0.445312 1.453125 -0.566406 1.453125 -0.703125 Z M 1.453125 -0.703125 "/></g></g></g><g fill="#fefefe" fill-opacity="1"><g transform="translate(74.505204, 35.073382)"><g><path d="M 0.46875 -1.890625 C 0.488281 -1.859375 0.5 -1.820312 0.5 -1.78125 C 0.5 -1.75 0.488281 -1.71875 0.46875 -1.6875 C 0.4375 -1.65625 0.398438 -1.640625 0.359375 -1.640625 C 0.328125 -1.640625 0.296875 -1.65625 0.265625 -1.6875 C 0.234375 -1.71875 0.21875 -1.75 0.21875 -1.78125 C 0.21875 -1.820312 0.234375 -1.859375 0.265625 -1.890625 C 0.296875 -1.910156 0.328125 -1.921875 0.359375 -1.921875 C 0.398438 -1.921875 0.4375 -1.910156 0.46875 -1.890625 Z M 0.484375 0 L 0.25 0 L 0.25 -1.40625 L 0.484375 -1.40625 Z M 0.484375 0 "/></g></g></g><g fill="#fefefe" fill-opacity="1"><g transform="translate(75.770192, 35.073382)"><g><path d="M 0.46875 0 L 0.234375 0 L 0.234375 -2.390625 L 0.46875 -2.390625 Z M 0.46875 0 "/></g></g></g><g fill="#fefefe" fill-opacity="1"><g transform="translate(77.006503, 35.073382)"><g><path d="M 0.46875 -1.890625 C 0.488281 -1.859375 0.5 -1.820312 0.5 -1.78125 C 0.5 -1.75 0.488281 -1.71875 0.46875 -1.6875 C 0.4375 -1.65625 0.398438 -1.640625 0.359375 -1.640625 C 0.328125 -1.640625 0.296875 -1.65625 0.265625 -1.6875 C 0.234375 -1.71875 0.21875 -1.75 0.21875 -1.78125 C 0.21875 -1.820312 0.234375 -1.859375 0.265625 -1.890625 C 0.296875 -1.910156 0.328125 -1.921875 0.359375 -1.921875 C 0.398438 -1.921875 0.4375 -1.910156 0.46875 -1.890625 Z M 0.484375 0 L 0.25 0 L 0.25 -1.40625 L 0.484375 -1.40625 Z M 0.484375 0 "/></g></g></g><g fill="#fefefe" fill-opacity="1"><g transform="translate(78.271491, 35.073382)"><g><path d="M 1.359375 -0.703125 C 1.359375 -0.835938 1.3125 -0.957031 1.21875 -1.0625 C 1.125 -1.164062 1.003906 -1.21875 0.859375 -1.21875 C 0.722656 -1.21875 0.609375 -1.164062 0.515625 -1.0625 C 0.410156 -0.957031 0.359375 -0.835938 0.359375 -0.703125 C 0.359375 -0.566406 0.410156 -0.445312 0.515625 -0.34375 C 0.609375 -0.238281 0.722656 -0.1875 0.859375 -0.1875 C 1.003906 -0.1875 1.125 -0.238281 1.21875 -0.34375 C 1.3125 -0.445312 1.359375 -0.566406 1.359375 -0.703125 Z M 1.578125 0 L 1.359375 0 L 1.359375 -0.234375 C 1.335938 -0.222656 1.320312 -0.207031 1.3125 -0.1875 C 1.175781 -0.0390625 1.015625 0.03125 0.828125 0.03125 C 0.628906 0.03125 0.46875 -0.0390625 0.34375 -0.1875 C 0.207031 -0.332031 0.140625 -0.503906 0.140625 -0.703125 C 0.140625 -0.898438 0.207031 -1.070312 0.34375 -1.21875 C 0.46875 -1.363281 0.628906 -1.4375 0.828125 -1.4375 C 1.015625 -1.4375 1.175781 -1.363281 1.3125 -1.21875 C 1.320312 -1.195312 1.335938 -1.175781 1.359375 -1.15625 L 1.359375 -2.390625 L 1.578125 -2.390625 Z M 1.578125 0 "/></g></g></g><g fill="#fefefe" fill-opacity="1"><g transform="translate(80.623033, 35.073382)"><g><path d="M 1.359375 -0.703125 C 1.359375 -0.835938 1.3125 -0.957031 1.21875 -1.0625 C 1.125 -1.164062 1.003906 -1.21875 0.859375 -1.21875 C 0.722656 -1.21875 0.609375 -1.164062 0.515625 -1.0625 C 0.410156 -0.957031 0.359375 -0.835938 0.359375 -0.703125 C 0.359375 -0.566406 0.410156 -0.445312 0.515625 -0.34375 C 0.609375 -0.238281 0.722656 -0.1875 0.859375 -0.1875 C 1.003906 -0.1875 1.125 -0.238281 1.21875 -0.34375 C 1.3125 -0.445312 1.359375 -0.566406 1.359375 -0.703125 Z M 1.578125 0 L 1.359375 0 L 1.359375 -0.234375 C 1.335938 -0.222656 1.320312 -0.207031 1.3125 -0.1875 C 1.175781 -0.0390625 1.015625 0.03125 0.828125 0.03125 C 0.628906 0.03125 0.46875 -0.0390625 0.34375 -0.1875 C 0.207031 -0.332031 0.140625 -0.503906 0.140625 -0.703125 C 0.140625 -0.898438 0.207031 -1.070312 0.34375 -1.21875 C 0.46875 -1.363281 0.628906 -1.4375 0.828125 -1.4375 C 1.015625 -1.4375 1.175781 -1.363281 1.3125 -1.21875 C 1.320312 -1.195312 1.335938 -1.175781 1.359375 -1.15625 L 1.359375 -1.40625 L 1.578125 -1.40625 Z M 1.578125 0 "/></g></g></g><g fill="#fefefe" fill-opacity="1"><g transform="translate(82.974574, 35.073382)"><g><path d="M 1.359375 -0.703125 C 1.359375 -0.835938 1.3125 -0.957031 1.21875 -1.0625 C 1.125 -1.164062 1.003906 -1.21875 0.859375 -1.21875 C 0.722656 -1.21875 0.609375 -1.164062 0.515625 -1.0625 C 0.410156 -0.957031 0.359375 -0.835938 0.359375 -0.703125 C 0.359375 -0.566406 0.410156 -0.445312 0.515625 -0.34375 C 0.609375 -0.238281 0.722656 -0.1875 0.859375 -0.1875 C 1.003906 -0.1875 1.125 -0.238281 1.21875 -0.34375 C 1.3125 -0.445312 1.359375 -0.566406 1.359375 -0.703125 Z M 1.578125 0 L 1.359375 0 L 1.359375 -0.234375 C 1.335938 -0.222656 1.320312 -0.207031 1.3125 -0.1875 C 1.175781 -0.0390625 1.015625 0.03125 0.828125 0.03125 C 0.628906 0.03125 0.46875 -0.0390625 0.34375 -0.1875 C 0.207031 -0.332031 0.140625 -0.503906 0.140625 -0.703125 C 0.140625 -0.898438 0.207031 -1.070312 0.34375 -1.21875 C 0.46875 -1.363281 0.628906 -1.4375 0.828125 -1.4375 C 1.015625 -1.4375 1.175781 -1.363281 1.3125 -1.21875 C 1.320312 -1.195312 1.335938 -1.175781 1.359375 -1.15625 L 1.359375 -2.390625 L 1.578125 -2.390625 Z M 1.578125 0 "/></g></g></g><g fill="#fefefe" fill-opacity="1"><g transform="translate(85.326116, 35.073382)"><g><path d="M 1.609375 -0.734375 L 1.609375 -0.609375 L 0.375 -0.609375 C 0.394531 -0.492188 0.453125 -0.394531 0.546875 -0.3125 C 0.648438 -0.238281 0.757812 -0.203125 0.875 -0.203125 C 0.957031 -0.203125 1.035156 -0.222656 1.109375 -0.265625 C 1.179688 -0.296875 1.242188 -0.34375 1.296875 -0.40625 L 1.546875 -0.40625 C 1.484375 -0.269531 1.394531 -0.164062 1.28125 -0.09375 C 1.15625 -0.0195312 1.03125 0.015625 0.90625 0.015625 C 0.78125 0.015625 0.675781 0 0.59375 -0.03125 C 0.5 -0.0703125 0.421875 -0.125 0.359375 -0.1875 C 0.210938 -0.332031 0.140625 -0.503906 0.140625 -0.703125 C 0.140625 -0.910156 0.210938 -1.085938 0.359375 -1.234375 C 0.503906 -1.367188 0.675781 -1.4375 0.875 -1.4375 C 1.070312 -1.4375 1.242188 -1.367188 1.390625 -1.234375 C 1.535156 -1.085938 1.609375 -0.921875 1.609375 -0.734375 Z M 1.375 -0.8125 C 1.34375 -0.925781 1.28125 -1.023438 1.1875 -1.109375 C 1.101562 -1.179688 1 -1.21875 0.875 -1.21875 C 0.695312 -1.21875 0.554688 -1.132812 0.453125 -0.96875 C 0.410156 -0.914062 0.382812 -0.863281 0.375 -0.8125 Z M 1.375 -0.8125 "/></g></g></g><g fill="#fefefe" fill-opacity="1"><g transform="translate(87.598842, 35.073382)"><g/></g></g><path stroke-linecap="butt" transform="matrix(-0.401781, 0.621584, -0.621584, -0.401781, 31.24889, 13.132482)" fill="none" stroke-linejoin="miter" d="M 0.25401 0.43104 C 3.252223 2.18196 6.248927 2.180524 9.246988 0.431164 " stroke="#ffffff" stroke-width="1" stroke-opacity="1" stroke-miterlimit="4"/><path stroke-linecap="butt" transform="matrix(-0.39945, -0.623085, 0.623085, -0.39945, 48.903543, 16.623753)" fill="none" stroke-linejoin="miter" d="M 0.862116 0.343881 C -0.457219 6.538401 1.838347 6.536788 7.745965 0.343485 " stroke="#ffffff" stroke-width="1" stroke-opacity="1" stroke-miterlimit="4"/></svg>